<svg width="487" height="425" viewBox="0 0 487 425" fill="none" xmlns="http://www.w3.org/2000/svg">
<path d="M425.558 0H73.1641V164.875H425.558V0Z" fill="#E7E7E7"/>
<path d="M430.86 0H75.6396V164.875H430.86V0Z" fill="#F0F0F0"/>
<path d="M425.558 164.875H73.1641V173.28H425.558V164.875Z" fill="#E7E7E7"/>
<path d="M439.7 164.875H84.4805V173.28H439.7V164.875Z" fill="#F0F0F0"/>
<path d="M423.42 157.448V7.43945L83.0667 7.43945V157.448L423.42 157.448Z" fill="#FAFAFA"/>
<path d="M119.588 157.448L140.276 7.43945H172.557L151.87 157.448H119.588Z" fill="white"/>
<path d="M86.5089 150.044C86.2191 150.044 85.9775 149.803 85.9775 149.513V12.2702C85.9775 11.9803 86.2191 11.7388 86.5089 11.7388C86.7988 11.7388 87.0403 11.9803 87.0403 12.2702V149.513C87.0403 149.803 86.7988 150.044 86.5089 150.044Z" fill="#F0F0F0"/>
<path d="M158.802 157.448L179.49 7.43945H192.074L171.386 157.448H158.802Z" fill="white"/>
<path d="M423.42 157.447V7.43945H422.478V157.447H423.42Z" fill="#E7E7E7"/>
<path opacity="0.6" d="M432.611 18.6348H80.2294L79.541 10.3258H431.935L432.611 18.6348Z" fill="#ECECEC"/>
<path opacity="0.6" d="M432.611 32.2817H80.2294L79.541 23.9607H431.935L432.611 32.2817Z" fill="#ECECEC"/>
<path opacity="0.6" d="M432.611 45.9166H80.2294L79.541 37.6077H431.935L432.611 45.9166Z" fill="#ECECEC"/>
<path opacity="0.6" d="M432.611 59.5636H80.2294L79.541 51.2426H431.935L432.611 59.5636Z" fill="#ECECEC"/>
<path opacity="0.6" d="M432.611 73.1985H80.2294L79.541 64.8895H431.935L432.611 73.1985Z" fill="#ECECEC"/>
<path opacity="0.6" d="M432.611 86.8454H80.2294L79.541 78.5244H431.935L432.611 86.8454Z" fill="#ECECEC"/>
<path d="M481.016 206.323H427.237V369.845H481.016V206.323Z" fill="#E7E7E7"/>
<path d="M466.656 369.845H481.015V347.273H451.596L466.656 369.845Z" fill="#FAFAFA"/>
<path d="M334.389 206.323H280.61V369.845H334.389V206.323Z" fill="#E7E7E7"/>
<path d="M481.016 206.323H321.854V362.08H481.016V206.323Z" fill="#FAFAFA"/>
<path d="M336.213 369.845H321.854V347.273H351.273L336.213 369.845Z" fill="#FAFAFA"/>
<path d="M469.869 264.353H332.988V303.325H469.869V264.353Z" fill="#F0F0F0"/>
<path d="M469.869 311.67H332.988V350.643H469.869V311.67Z" fill="#F0F0F0"/>
<path d="M354.497 260.983H448.359V262.879C448.359 265.995 445.835 268.519 442.719 268.519H360.149C357.033 268.519 354.509 265.995 354.509 262.879V260.983H354.497Z" fill="#FAFAFA"/>
<path d="M469.869 217.047H332.988V256.02H469.869V217.047Z" fill="#F0F0F0"/>
<path d="M354.497 213.678H448.359V215.574C448.359 218.69 445.835 221.214 442.719 221.214H360.149C357.033 221.214 354.509 218.69 354.509 215.574V213.678H354.497Z" fill="#FAFAFA"/>
<path d="M354.497 308.289H448.359V310.185C448.359 313.301 445.835 315.825 442.719 315.825H360.149C357.033 315.825 354.509 313.301 354.509 310.185V308.289H354.497Z" fill="#FAFAFA"/>
<path d="M15.3517 241.177C18.3468 232.578 41.9693 244.269 51.5585 258.532C57.9472 268.024 61.848 278.157 63.6596 291.768C63.4422 276.237 63.1886 259.546 62.947 243.798C61.0026 239.873 56.5825 230.815 53.3941 223.641C42.7664 199.705 17.5014 190.792 8.76975 175.684C-2.66715 155.877 -2.60676 126.18 7.13935 115.468C15.6053 106.157 43.6118 169.138 46.776 176.167C57.6332 200.369 60.7853 218.327 62.8263 235.73C62.5968 220.936 62.3673 207.362 62.1862 196.879C61.5944 162.701 60.8456 151.711 60.5075 148.329C59.336 146.675 57.9592 144.755 57.1501 143.716C50.3749 134.984 35.327 124.598 27.8031 111.905C16.8251 93.3791 18.6004 71.2058 26.2934 62.9452C34.3488 54.3101 48.5754 74.7202 56.1356 94.9371C63.6958 115.154 60.4592 134.501 62.5847 151.3C63.0316 154.597 63.4784 167.097 63.9132 184.452C66.2078 165.781 70.7729 153.281 79.2389 141.627C89.6492 127.291 98.6345 109.84 107.209 112.086C115.784 114.345 111.17 137.436 104.383 153.655C98.3446 168.099 68.5387 182.495 64.1427 194.113C64.662 217.627 65.1209 247.421 65.447 275.162C67.802 260.838 66.1837 259.631 75.809 237.687C81.5335 224.644 104.999 208.557 107.801 217.518C110.542 226.31 106.352 243.411 97.4872 255.283C90.3376 264.848 74.4805 264.836 70.8091 270.778C69.9517 272.167 67.1257 277.468 65.5074 280.524C65.8938 314.388 66.0629 344.29 65.8697 354.483L64.3359 354.592C64.4084 351.959 64.2272 334.737 63.9253 311.936C60.0727 299.799 34.1555 292.722 26.1485 280.113C17.7671 266.913 11.7407 251.503 15.3396 241.189L15.3517 241.177Z" fill="#E7E7E7"/>
<path d="M39.7233 369.845H89.4804C92.1978 369.845 94.5407 367.925 95.0842 365.268L98.6106 347.853H30.5811L34.1075 365.268C34.651 367.937 36.9939 369.845 39.7112 369.845H39.7233Z" fill="#F0F0F0"/>
<path d="M29.1678 354.592H100.035C101.738 354.592 103.163 353.312 103.357 351.633L104.806 338.759C105.023 336.778 103.477 335.051 101.485 335.051H27.7185C25.7258 335.051 24.18 336.778 24.3974 338.759L25.8466 351.633C26.0398 353.324 27.4649 354.592 29.1678 354.592Z" fill="#F0F0F0"/>
<path d="M165.614 291.611H123.091V369.845H165.614V291.611Z" fill="#E1E1E1"/>
<path d="M273.992 369.845H131.617L116.653 263.689H259.029L273.992 369.845Z" fill="#E7E7E7"/>
<path d="M294.764 369.845H137.269L122.317 263.689H279.801L294.764 369.845Z" fill="#F0F0F0"/>
<path d="M152.691 353.239L140.083 280.282H264.391L276.988 353.239H152.691Z" fill="white"/>
<path d="M206.096 353.239L163.851 280.282H177.099L219.356 353.239H206.096Z" fill="#FAFAFA"/>
<path d="M224.971 353.239L182.714 280.282H205.322L247.567 353.239H224.971Z" fill="#FAFAFA"/>
<path d="M252.761 424.385C382.084 424.385 486.921 418.264 486.921 410.714C486.921 403.163 382.084 397.042 252.761 397.042C123.438 397.042 18.6006 403.163 18.6006 410.714C18.6006 418.264 123.438 424.385 252.761 424.385Z" fill="#F5F5F5"/>
<path d="M385.197 287.999H135.844C129.479 287.999 123.839 282.794 123.308 276.43L109.262 107.63C108.731 101.265 113.501 96.0602 119.866 96.0602H369.219C375.583 96.0602 381.223 101.265 381.755 107.63L395.8 276.43C396.332 282.794 391.561 287.999 385.197 287.999Z" fill="white"/>
<path d="M385.197 288.471H135.844C129.226 288.471 123.381 283.084 122.837 276.466L108.792 107.666C108.526 104.442 109.54 101.41 111.654 99.1157C113.755 96.8332 116.678 95.5771 119.878 95.5771H369.231C375.85 95.5771 381.695 100.963 382.238 107.594L396.284 276.394C396.55 279.618 395.535 282.649 393.422 284.944C391.32 287.227 388.398 288.483 385.197 288.483V288.471ZM119.866 96.5433C116.931 96.5433 114.262 97.6906 112.342 99.7679C110.422 101.857 109.492 104.635 109.734 107.582L123.779 276.381C124.286 282.517 129.697 287.504 135.832 287.504H385.185C388.12 287.504 390.789 286.357 392.709 284.28C394.629 282.191 395.559 279.413 395.318 276.466L381.272 107.666C380.765 101.531 375.354 96.5433 369.219 96.5433H119.866Z" fill="#E43D30"/>
<path d="M369.219 96.0602H119.866C113.501 96.0602 108.731 101.265 109.262 107.63H381.755C381.223 101.265 375.583 96.0602 369.219 96.0602Z" fill="#E43D30"/>
<path d="M125.7 101.845C125.808 103.222 124.794 104.345 123.417 104.345C122.04 104.345 120.833 103.234 120.712 101.845C120.591 100.456 121.618 99.3452 122.994 99.3452C124.371 99.3452 125.579 100.456 125.7 101.845Z" fill="white"/>
<path d="M135.844 101.845C135.953 103.222 134.938 104.345 133.562 104.345C132.185 104.345 130.977 103.234 130.856 101.845C130.736 100.456 131.762 99.3452 133.139 99.3452C134.516 99.3452 135.723 100.456 135.844 101.845Z" fill="white"/>
<path d="M145.989 101.845C146.097 103.222 145.083 104.345 143.706 104.345C142.329 104.345 141.122 103.234 141.001 101.845C140.88 100.468 141.907 99.3452 143.283 99.3452C144.66 99.3452 145.868 100.456 145.989 101.845Z" fill="white"/>
<path d="M363.556 265.875H153.803C148.743 265.875 144.262 261.732 143.839 256.684L134.045 138.946C133.622 133.885 137.414 129.755 142.475 129.755H352.227C357.288 129.755 361.768 133.897 362.191 138.946L371.985 256.684C372.408 261.744 368.616 265.875 363.556 265.875Z" fill="#F0F0F0"/>
<path opacity="0.1" d="M298.69 150.358L233.704 228.593C224.791 239.329 230.431 255.682 244.078 258.64L349.474 281.442C364.027 284.594 376.188 270.198 370.657 256.37L330.247 155.334C325.018 142.255 307.7 139.525 298.69 150.358Z" fill="black"/>
<path opacity="0.1" d="M154.044 161.336L131.411 222.289C128.392 230.416 134.926 238.907 143.561 238.061L209.658 231.576C218.921 230.67 223.498 219.849 217.689 212.567L174.224 158.1C168.524 150.962 157.22 152.774 154.044 161.336Z" fill="black"/>
<path d="M321.104 130.661L260.357 218.871C252.084 230.888 259.415 247.397 273.871 249.329L385.535 264.196C401.03 266.261 412.563 250.187 405.631 236.165L354.715 133.1C348.108 119.731 329.558 118.391 321.104 130.673V130.661Z" fill="#E43D30"/>
<path d="M276.516 241.419C272.458 240.875 268.92 238.315 267.072 234.571C265.224 230.827 265.43 226.673 267.64 223.46L328.544 135.033C330.754 131.82 334.498 130.238 338.556 130.77C342.613 131.313 346.152 133.873 348 137.617L399.049 240.948C400.897 244.692 400.692 248.846 398.482 252.059C396.271 255.271 392.528 256.853 388.47 256.322L276.516 241.419Z" fill="white"/>
<path d="M333.375 162.025L340.488 162.967C345.065 163.571 348.58 167.737 348.35 172.254L347.879 181.529C347.867 181.867 347.819 182.205 347.759 182.543L342.698 210.502C341.974 214.535 338.29 217.132 334.112 216.576C329.921 216.021 326.551 212.458 326.262 208.279L324.209 179.391C324.184 179.053 324.184 178.727 324.209 178.389L324.692 169.102C324.921 164.573 328.822 161.409 333.399 162.013L333.375 162.025ZM332.807 224.294L334.752 224.547C338.846 225.091 341.986 228.81 341.781 232.856C341.575 236.902 338.085 239.74 333.991 239.197L332.046 238.943C327.952 238.399 324.812 234.68 325.018 230.634C325.223 226.588 328.713 223.75 332.807 224.294Z" fill="#E43D30"/>
<path d="M177.413 144.151L160.735 207.398C158.525 215.767 165.831 223.569 174.334 221.914L239.03 209.294C248.124 207.519 251.675 196.408 245.298 189.693L197.28 139.066C190.952 132.388 179.756 135.262 177.401 144.151H177.413Z" fill="#E43D30"/>
<path d="M174.213 216.794C171.858 217.253 169.418 216.431 167.667 214.584C165.916 212.748 165.24 210.272 165.843 207.966L182.57 144.549C183.174 142.255 184.949 140.6 187.292 140.141C189.647 139.682 192.087 140.504 193.838 142.351L241.977 193.111C243.728 194.947 244.404 197.422 243.8 199.729C243.196 202.024 241.421 203.678 239.078 204.137L174.213 216.794Z" fill="white"/>
<path d="M190.433 159.452L194.551 158.643C197.196 158.124 199.949 159.887 200.686 162.58L202.208 168.099C202.268 168.305 202.304 168.51 202.34 168.715L204.913 186.058C205.287 188.558 203.741 190.78 201.326 191.263C198.899 191.734 196.35 190.297 195.384 187.906L188.693 171.384C188.621 171.191 188.549 170.998 188.5 170.805L186.979 165.273C186.242 162.58 187.788 159.984 190.433 159.464V159.452ZM202.087 196.021L203.21 195.804C205.577 195.345 208.041 196.915 208.705 199.33C209.369 201.734 207.98 204.065 205.613 204.523L204.49 204.741C202.123 205.2 199.659 203.63 198.995 201.214C198.331 198.811 199.72 196.48 202.087 196.021Z" fill="#E43D30"/>
</svg>
