<svg width="36" height="36" viewBox="0 0 36 36" fill="none" xmlns="http://www.w3.org/2000/svg">
<path fill-rule="evenodd" clip-rule="evenodd" d="M4.5 9.75C4.5 5.81218 4.54216 4.5 9.75 4.5C14.9578 4.5 15 5.81218 15 9.75C15 13.6878 15.0166 15 9.75 15C4.48339 15 4.5 13.6878 4.5 9.75Z" stroke="#E43D30" stroke-width="1.6" stroke-linecap="round" stroke-linejoin="round"/>
<path fill-rule="evenodd" clip-rule="evenodd" d="M21 9.75C21 5.81218 21.0422 4.5 26.25 4.5C31.4578 4.5 31.5 5.81218 31.5 9.75C31.5 13.6878 31.5166 15 26.25 15C20.9834 15 21 13.6878 21 9.75Z" stroke="#E43D30" stroke-width="1.6" stroke-linecap="round" stroke-linejoin="round"/>
<path fill-rule="evenodd" clip-rule="evenodd" d="M4.5 26.25C4.5 22.3122 4.54216 21 9.75 21C14.9578 21 15 22.3122 15 26.25C15 30.1878 15.0166 31.5 9.75 31.5C4.48339 31.5 4.5 30.1878 4.5 26.25Z" stroke="#E43D30" stroke-width="1.6" stroke-linecap="round" stroke-linejoin="round"/>
<path fill-rule="evenodd" clip-rule="evenodd" d="M21 26.25C21 22.3122 21.0422 21 26.25 21C31.4578 21 31.5 22.3122 31.5 26.25C31.5 30.1878 31.5166 31.5 26.25 31.5C20.9834 31.5 21 30.1878 21 26.25Z" stroke="#E43D30" stroke-width="1.6" stroke-linecap="round" stroke-linejoin="round"/>
</svg>
