<svg width="40" height="40" viewBox="0 0 40 40" fill="none" xmlns="http://www.w3.org/2000/svg">
<path fill-rule="evenodd" clip-rule="evenodd" d="M20.4339 17.9937C18.7204 17.9937 17.3263 16.5996 17.3263 14.8861C17.3263 13.1725 18.7204 11.7784 20.4339 11.7784C22.1475 11.7784 23.5416 13.1725 23.5416 14.8861C23.5416 16.5996 22.1475 17.9937 20.4339 17.9937ZM20.434 10.5354C18.0349 10.5354 16.0833 12.487 16.0833 14.8861C16.0833 17.2852 18.0349 19.2368 20.434 19.2368C22.833 19.2368 24.7846 17.2852 24.7846 14.8861C24.7846 12.487 22.833 10.5354 20.434 10.5354ZM24.8015 26.4869C23.4913 28.4006 22.0245 30.5436 20.4346 33.2125C18.8448 30.5436 17.378 28.4006 16.0678 26.4869C13.0832 22.1275 11.1117 19.2474 11.1117 14.8868C11.1117 9.74613 15.294 5.56388 20.4346 5.56388C25.5753 5.56388 29.7575 9.74613 29.7575 14.8868C29.7575 19.2474 27.786 22.1275 24.8015 26.4869ZM20.4341 4.32031C14.6079 4.32031 9.86816 9.06007 9.86816 14.8863C9.86816 19.6316 11.9267 22.6379 15.0417 27.1881C16.4856 29.2976 18.1227 31.6892 19.8965 34.7508L20.4341 35.6794L20.9717 34.7508C22.7456 31.6892 24.3827 29.2976 25.8265 27.1881C28.9416 22.6379 31 19.6316 31 14.8863C31 9.06007 26.2603 4.32031 20.4341 4.32031Z" fill="#E43D30"/>
<path d="M20.4346 33.2125L20.2198 33.3404L20.4346 33.701L20.6494 33.3404L20.4346 33.2125ZM16.0678 26.4869L15.8615 26.6282H15.8615L16.0678 26.4869ZM15.0417 27.1881L15.2481 27.0469L15.248 27.0469L15.0417 27.1881ZM19.8965 34.7508L20.1128 34.6256L20.1128 34.6255L19.8965 34.7508ZM20.4341 35.6794L20.2178 35.8047L20.4341 36.1784L20.6505 35.8047L20.4341 35.6794ZM20.9717 34.7508L20.7554 34.6255L20.7554 34.6256L20.9717 34.7508ZM25.8265 27.1881L25.6202 27.0469L25.6202 27.0469L25.8265 27.1881ZM20.4339 17.7437C18.8585 17.7437 17.5763 16.4616 17.5763 14.8861H17.0763C17.0763 16.7377 18.5823 18.2437 20.4339 18.2437V17.7437ZM17.5763 14.8861C17.5763 13.3106 18.8585 12.0284 20.4339 12.0284V11.5284C18.5823 11.5284 17.0763 13.0345 17.0763 14.8861H17.5763ZM20.4339 12.0284C22.0094 12.0284 23.2916 13.3106 23.2916 14.8861H23.7916C23.7916 13.0345 22.2855 11.5284 20.4339 11.5284V12.0284ZM23.2916 14.8861C23.2916 16.4616 22.0094 17.7437 20.4339 17.7437V18.2437C22.2855 18.2437 23.7916 16.7377 23.7916 14.8861H23.2916ZM20.434 10.2854C17.8968 10.2854 15.8333 12.3489 15.8333 14.8861H16.3333C16.3333 12.6251 18.1729 10.7854 20.434 10.7854V10.2854ZM15.8333 14.8861C15.8333 17.4233 17.8968 19.4868 20.434 19.4868V18.9868C18.1729 18.9868 16.3333 17.1471 16.3333 14.8861H15.8333ZM20.434 19.4868C22.9711 19.4868 25.0346 17.4233 25.0346 14.8861H24.5346C24.5346 17.1471 22.695 18.9868 20.434 18.9868V19.4868ZM25.0346 14.8861C25.0346 12.3489 22.9711 10.2854 20.434 10.2854V10.7854C22.695 10.7854 24.5346 12.6251 24.5346 14.8861H25.0346ZM24.5952 26.3457C23.285 28.2594 21.8142 30.4082 20.2198 33.0845L20.6494 33.3404C22.2348 30.6791 23.6976 28.5418 25.0077 26.6282L24.5952 26.3457ZM20.6494 33.0845C19.0551 30.4082 17.5843 28.2594 16.2741 26.3457L15.8615 26.6282C17.1717 28.5418 18.6344 30.6791 20.2198 33.3404L20.6494 33.0845ZM16.2741 26.3457C13.2825 21.9761 11.3617 19.1582 11.3617 14.8868H10.8617C10.8617 19.3366 12.8839 22.279 15.8615 26.6282L16.2741 26.3457ZM11.3617 14.8868C11.3617 9.8842 15.4321 5.81388 20.4346 5.81388V5.31388C15.1559 5.31388 10.8617 9.60806 10.8617 14.8868H11.3617ZM20.4346 5.81388C25.4372 5.81388 29.5075 9.8842 29.5075 14.8868H30.0075C30.0075 9.60806 25.7133 5.31388 20.4346 5.31388V5.81388ZM29.5075 14.8868C29.5075 19.1582 27.5867 21.9761 24.5952 26.3457L25.0078 26.6282C27.9853 22.279 30.0075 19.3366 30.0075 14.8868H29.5075ZM20.4341 4.07031C14.4698 4.07031 9.61816 8.922 9.61816 14.8863H10.1182C10.1182 9.19814 14.746 4.57031 20.4341 4.57031V4.07031ZM9.61816 14.8863C9.61816 19.7199 11.726 22.7873 14.8355 27.3293L15.248 27.0469C12.1273 22.4885 10.1182 19.5433 10.1182 14.8863H9.61816ZM14.8354 27.3293C16.2792 29.4387 17.9115 31.8235 19.6802 34.8762L20.1128 34.6255C18.3338 31.555 16.6919 29.1565 15.2481 27.0469L14.8354 27.3293ZM19.6801 34.8761L20.2178 35.8047L20.6505 35.5541L20.1128 34.6256L19.6801 34.8761ZM20.6505 35.8047L21.1881 34.8761L20.7554 34.6256L20.2178 35.5541L20.6505 35.8047ZM21.188 34.8762C22.9567 31.8235 24.589 29.4387 26.0328 27.3293L25.6202 27.0469C24.1763 29.1565 22.5344 31.555 20.7554 34.6255L21.188 34.8762ZM26.0328 27.3293C29.1422 22.7873 31.25 19.7199 31.25 14.8863H30.75C30.75 19.5433 28.7409 22.4885 25.6202 27.0469L26.0328 27.3293ZM31.25 14.8863C31.25 8.922 26.3984 4.07031 20.4341 4.07031V4.57031C26.1222 4.57031 30.75 9.19814 30.75 14.8863H31.25Z" fill="#E43D30"/>
</svg>
