<svg width="251" height="40" viewBox="0 0 251 40" fill="none" xmlns="http://www.w3.org/2000/svg">
<path d="M14.4169 29.3386C13.9582 29.3386 13.7488 29.3785 13.2502 29.5879L12.5023 29.927C11.5051 30.3957 9.76005 30.6948 8.42382 30.6948C4.30544 30.6948 1.4834 28.3016 1.4834 24.8513C1.4834 22.9267 2.40081 21.2714 4.05614 20.2044C5.46218 19.2671 7.62607 18.2798 9.82986 17.5619L12.8613 16.5447C13.7787 16.2057 14.0679 15.9065 14.0679 15.2185V14.2811C14.0679 12.4463 12.9411 11.6386 10.498 11.6386C8.29419 11.6386 5.80122 12.2768 4.26555 13.264C3.88662 13.5133 3.76696 13.5631 3.51766 13.5631C3.13873 13.5631 2.92932 13.3537 2.92932 12.9648V11.2596C2.92932 10.6613 3.0091 10.4021 3.34814 10.1927C4.59462 9.38493 8.33408 8.65698 11.0365 8.65698C15.6036 8.65698 17.9769 10.6214 17.9769 14.4606V29.7375C17.9769 30.0766 17.6877 30.3757 17.3486 30.3757H15.2346C14.6961 30.3757 14.4867 30.1264 14.4867 29.568V29.3586H14.4069L14.4169 29.3386ZM9.79994 20.5036C6.42945 21.6603 5.5619 22.5478 5.5619 24.6818C5.5619 26.6861 6.84827 27.7132 9.38112 27.7132C10.6276 27.7132 11.8741 27.4639 12.8713 27.0351C13.8286 26.5665 14.0779 26.1776 14.0779 24.9012V18.9679L9.79994 20.5036Z" fill="black"/>
<path d="M34.7794 9.41487C34.8591 9.16558 35.1084 8.98608 35.4076 8.98608H37.5216C37.9803 8.98608 38.2695 9.15561 38.2695 9.54451C38.2695 9.63426 38.1897 9.84366 38.1 10.1428L31.7878 28.7005C31.6183 29.1692 31.4089 29.7675 31.2892 30.0666C31 30.5752 30.7009 30.7048 29.7535 30.7048H28.0085C26.8417 30.7048 26.5526 30.4954 26.1836 29.4284L25.9742 28.7902L19.6221 10.1528C19.5423 9.94338 19.5024 9.76389 19.5024 9.59437C19.5024 9.16558 19.7916 8.99606 20.4597 8.99606H23.0823C23.3715 8.99606 23.5809 9.16558 23.6707 9.42485L29.245 26.8357L34.8192 9.42485L34.7794 9.41487Z" fill="black"/>
<path d="M42.5471 0.5C44.0828 0.5 44.8706 1.35758 44.8706 2.89325C44.8706 4.42892 44.0828 5.2865 42.4973 5.2865C40.9117 5.2865 40.1738 4.42892 40.1738 2.85336C40.1738 1.40744 41.0414 0.509972 42.5372 0.509972L42.5471 0.5Z" fill="#E43D30"/>
<path d="M40.603 29.7276V9.62428C40.603 9.28524 40.8922 8.98608 41.2313 8.98608H43.8539C44.2328 8.98608 44.4821 9.28524 44.4821 9.62428V29.7176C44.4821 30.0567 44.2328 30.3558 43.8539 30.3558H41.2313C40.9022 30.3558 40.603 30.0567 40.603 29.7176V29.7276Z" fill="black"/>
<path d="M64.3258 27.3742C64.6549 27.3742 64.9541 27.6734 64.9541 28.0124V29.7176C64.9541 30.0567 64.6649 30.3558 64.3258 30.3558H48.8694C48.5404 30.3558 48.2412 30.0567 48.2412 29.7176V27.454C48.2412 26.7759 48.3609 26.3471 48.6999 25.9582L59.998 11.9677H49.2783C48.9492 11.9677 48.6501 11.6685 48.6501 11.3295V9.62428C48.6501 9.28524 48.9392 8.98608 49.2783 8.98608H63.907C64.2361 8.98608 64.5353 9.28524 64.5353 9.62428V11.5887C64.5353 12.3566 64.4954 12.4463 63.9469 13.1244L52.3496 27.3742H64.3258Z" fill="black"/>
<path d="M79.9916 29.3386C79.5329 29.3386 79.3235 29.3785 78.8249 29.5879L78.077 29.927C77.0798 30.3957 75.3348 30.6948 73.9985 30.6948C69.8801 30.6948 67.0581 28.3016 67.0581 24.8513C67.0581 22.9267 67.9755 21.2714 69.6309 20.2044C71.0369 19.2671 73.2008 18.2798 75.4046 17.5619L78.436 16.5447C79.3534 16.2057 79.6426 15.9065 79.6426 15.2185V14.2811C79.6426 12.4463 78.5158 11.6386 76.0727 11.6386C73.8689 11.6386 71.3759 12.2768 69.8403 13.264C69.4613 13.5133 69.3417 13.5631 69.0924 13.5631C68.7134 13.5631 68.504 13.3537 68.504 12.9648V11.2596C68.504 10.6613 68.5838 10.4021 68.9228 10.1927C70.1693 9.38493 73.9088 8.65698 76.6112 8.65698C81.1783 8.65698 83.5516 10.6214 83.5516 14.4606V29.7375C83.5516 30.0766 83.2624 30.3757 82.9234 30.3757H80.8093C80.2708 30.3757 80.0614 30.1264 80.0614 29.568V29.3586H79.9817L79.9916 29.3386ZM75.3746 20.5036C72.0042 21.6603 71.1366 22.5478 71.1366 24.6818C71.1366 26.6861 72.423 27.7132 74.9558 27.7132C76.2023 27.7132 77.4488 27.4639 78.446 27.0351C79.4033 26.5665 79.6526 26.1776 79.6526 24.9012V18.9679L75.3746 20.5036Z" fill="black"/>
<path d="M109.221 29.2886C108.762 29.2886 108.562 29.3285 108.064 29.5379L107.326 29.8769C106.339 30.3456 104.604 30.6348 103.287 30.6348C99.2088 30.6348 96.4067 28.2615 96.4067 24.8312C96.4067 22.9265 97.3142 21.2712 98.9595 20.2142C100.366 19.2868 102.51 18.3096 104.693 17.5916L107.705 16.5745C108.612 16.2354 108.901 15.9363 108.901 15.2582V14.3308C108.901 12.5159 107.785 11.7082 105.361 11.7082C103.178 11.7082 100.705 12.3464 99.1789 13.3137C98.81 13.563 98.6903 13.6028 98.441 13.6028C98.072 13.6028 97.8626 13.3934 97.8626 13.0145V11.3193C97.8626 10.7309 97.9424 10.4717 98.2815 10.2623C99.518 9.45455 103.227 8.73657 105.91 8.73657C110.447 8.73657 112.791 10.6811 112.791 14.4903V29.6476C112.791 29.9866 112.501 30.2858 112.172 30.2858H110.068C109.53 30.2858 109.33 30.0365 109.33 29.4781V29.2687H109.251V29.2886H109.221ZM104.634 20.5233C101.293 21.6601 100.425 22.5576 100.425 24.6716C100.425 26.666 101.702 27.6732 104.225 27.6732C105.461 27.6732 106.698 27.4239 107.695 26.9951C108.642 26.5264 108.892 26.1475 108.892 24.881V18.9976L104.644 20.5233H104.634Z" fill="black" stroke="black" stroke-width="0.2"/>
<path d="M132.116 26.0777C132.405 26.0777 132.655 26.3669 132.655 26.8356V28.5308C132.655 29.0394 132.535 29.2488 132.116 29.4582C130.71 30.1762 128.317 30.6449 126.183 30.6449C119.711 30.6449 115.872 26.6262 115.872 19.7655C115.872 12.9049 119.99 8.75659 126.711 8.75659C128.486 8.75659 130.252 9.09564 131.907 9.81361C132.485 10.023 132.645 10.2424 132.645 10.6213V12.6157C132.645 13.0445 132.435 13.3337 132.106 13.3337C131.897 13.3337 131.817 13.2938 131.448 13.0844C129.713 12.1071 128.357 11.7282 126.622 11.7282C122.334 11.7282 119.901 14.5702 119.901 19.606C119.901 24.6418 122.414 27.6932 126.702 27.6932C128.227 27.6932 129.793 27.2744 131.279 26.4168L131.488 26.327C131.737 26.1575 131.937 26.0777 132.106 26.0777H132.116Z" fill="black" stroke="black" stroke-width="0.2"/>
<path d="M148.579 29.2886C148.131 29.2886 147.921 29.3285 147.423 29.5379L146.685 29.8769C145.698 30.3456 143.962 30.6348 142.646 30.6348C138.568 30.6348 135.766 28.2615 135.766 24.8312C135.766 22.9265 136.673 21.2712 138.318 20.2142C139.724 19.2868 141.868 18.3096 144.052 17.5916L147.064 16.5745C147.971 16.2354 148.26 15.9363 148.26 15.2582V14.3308C148.26 12.5159 147.144 11.7082 144.72 11.7082C142.537 11.7082 140.064 12.3464 138.538 13.3137C138.169 13.563 138.039 13.6028 137.8 13.6028C137.431 13.6028 137.222 13.3934 137.222 13.0145V11.3193C137.222 10.7309 137.301 10.4717 137.64 10.2623C138.877 9.45455 142.586 8.73657 145.269 8.73657C149.806 8.73657 152.149 10.6811 152.149 14.4903V29.6476C152.149 29.9866 151.86 30.2858 151.531 30.2858H149.427C148.889 30.2858 148.689 30.0365 148.689 29.4781V29.2687H148.609V29.2886H148.579ZM143.992 20.5233C140.652 21.6601 139.784 22.5576 139.784 24.6716C139.784 26.666 141.061 27.6732 143.584 27.6732C144.82 27.6732 146.057 27.4239 147.044 26.9951C147.991 26.5264 148.24 26.1475 148.24 24.881V18.9976L143.992 20.5233Z" fill="black" stroke="black" stroke-width="0.2"/>
<path d="M170.577 29.3286C170.288 29.3286 170.039 29.3685 169.75 29.538L169.381 29.7075C168.144 30.3457 166.698 30.6349 165.133 30.6349C159.11 30.6349 155.241 26.4068 155.241 19.8453C155.241 13.2839 159.359 8.75662 165.173 8.75662C166.619 8.75662 168.134 9.09567 169.012 9.68401L169.431 9.97319C169.72 10.1427 169.8 10.1826 170.129 10.1427H170.209V1.30763C170.209 0.96859 170.498 0.669434 170.827 0.669434H173.419C173.788 0.669434 174.038 0.958618 174.038 1.30763V29.6676C174.038 30.0067 173.749 30.3058 173.419 30.3058H171.275C170.907 30.3058 170.617 30.0167 170.617 29.5879V29.3386H170.577V29.3286ZM169.301 12.4861C168.473 11.9775 167.327 11.7282 166.04 11.7282C163.936 11.7282 162.201 12.4462 161.014 13.8822C159.738 15.358 159.279 16.9236 159.279 19.975C159.279 24.8014 161.792 27.6733 166 27.6733C166.828 27.6733 167.646 27.5436 168.354 27.3342C169.76 26.8655 170.209 26.3171 170.209 25.0906V14.4206C170.209 13.4035 169.959 12.895 169.301 12.4761V12.4861Z" fill="black" stroke="black" stroke-width="0.2"/>
<path d="M180.968 20.4038C180.968 24.7615 183.651 27.6833 187.689 27.6833C189.125 27.6833 191.03 27.0949 192.675 26.1177L193.004 25.9482C193.164 25.8185 193.413 25.7787 193.543 25.7787C193.872 25.7787 194.121 26.0678 194.121 26.4567V28.1121C194.121 28.7902 194.002 28.9597 193.214 29.2987C191.439 30.1463 189.135 30.6549 187.071 30.6549C180.968 30.6549 177.139 26.5066 177.139 19.9451C177.139 13.3836 180.729 8.77661 186.453 8.77661C191.808 8.77661 195.318 12.5859 195.318 18.3795V19.5263C195.318 19.8653 195.069 20.1645 194.7 20.1645H180.968V20.4138V20.4038ZM191.479 16.7641C191.479 13.7625 189.375 11.6784 186.283 11.6784C183.192 11.6784 181.008 13.962 180.958 17.1829H191.469V16.7641H191.479Z" fill="black" stroke="black" stroke-width="0.2"/>
<path d="M201.909 10.1627C202.328 10.1627 202.647 10.073 203.066 9.9134L204.013 9.53447C205.21 9.0658 206.606 8.77661 207.723 8.77661C209.827 8.77661 211.682 9.49459 213.118 10.8508H213.616C215.591 9.53447 218.064 8.77661 220.297 8.77661C224.795 8.77661 227.637 11.489 227.637 15.8467V29.6876C227.637 30.0267 227.348 30.3258 227.019 30.3258H224.376C224.047 30.3258 223.758 30.0366 223.758 29.6876V16.1857C223.758 13.2241 222.312 11.7383 219.43 11.7383C218.443 11.7383 217.456 11.9078 216.668 12.1571C215.391 12.6258 214.933 13.3038 214.933 14.65V29.6777C214.933 30.0167 214.643 30.3159 214.314 30.3159H211.672C211.343 30.3159 211.054 30.0267 211.054 29.6777V16.2156C211.054 13.254 209.528 11.7283 206.516 11.7283C205.609 11.7283 204.701 11.8978 203.834 12.2369C202.597 12.7055 202.189 13.2939 202.189 14.5703V29.6777C202.189 30.0167 201.939 30.3159 201.57 30.3159H198.978C198.649 30.3159 198.359 30.0267 198.359 29.6777V9.73391C198.359 9.39487 198.649 9.09571 198.978 9.09571H201.122C201.58 9.09571 201.78 9.30512 201.78 9.81369V10.1527H201.899L201.909 10.1627Z" fill="black" stroke="black" stroke-width="0.2"/>
<path d="M244.788 9.90339C244.998 9.26519 245.247 9.09567 245.815 9.09567H247.55C248.129 9.09567 248.418 9.2253 248.418 9.56434C248.418 9.73387 248.378 9.85353 248.258 10.1527L241.458 29.2887L240.59 31.7817C239.802 33.9356 238.895 36.0596 238.197 37.3659C237.409 38.8019 236.502 39.4002 235.026 39.4002H234.657C233.919 39.4002 233.71 39.2307 233.71 38.5925V37.0269C233.71 36.4385 233.919 36.0995 234.328 36.0995H234.697C235.116 36.0995 235.355 35.93 235.604 35.4613C236.023 34.7832 236.472 33.806 236.881 32.6193L237.828 30.0366L229.95 10.3122C229.791 9.9333 229.741 9.80367 229.741 9.63415C229.741 9.25522 230.03 9.08569 230.568 9.08569H232.832C233.49 9.08569 233.819 9.2951 234.029 9.84356L239.882 25.3797L244.788 9.88344V9.90339Z" fill="black" stroke="black" stroke-width="0.2"/>
</svg>
