<svg width="43" height="43" viewBox="0 0 43 43" fill="none" xmlns="http://www.w3.org/2000/svg">
<circle cx="21.5" cy="21.5" r="21.5" fill="black"/>
<g clip-path="url(#clip0_609_16153)">
<path d="M14.2283 10C13.4178 10 12.64 10.3225 12.067 10.8965C11.4939 11.4705 11.1719 12.249 11.1719 13.0612C11.1719 13.8735 11.4939 14.6515 12.067 15.2259C12.64 15.8004 13.4173 16.1224 14.2283 16.1224C15.0392 16.1224 15.816 15.7999 16.3896 15.2259C16.9626 14.652 17.2846 13.8735 17.2846 13.0612C17.2846 12.249 16.9626 11.4709 16.3896 10.8965C15.816 10.3225 15.0387 10 14.2283 10ZM14.2283 14.8469C13.7552 14.8469 13.3018 14.6588 12.9675 14.324C12.6332 13.9892 12.4454 13.535 12.4454 13.0612C12.4454 12.5875 12.6332 12.1333 12.9675 11.7985C13.3018 11.4636 13.7552 11.2755 14.2283 11.2755C14.7013 11.2755 15.1547 11.4636 15.489 11.7985C15.8233 12.1333 16.0111 12.5875 16.0111 13.0612C16.0111 13.535 15.8233 13.9892 15.489 14.324C15.1547 14.6588 14.7013 14.8469 14.2283 14.8469Z" fill="white"/>
<path d="M10.8888 26.2704L11.9076 33.6889C11.9485 34.0483 12.12 34.3804 12.3888 34.6218C12.6576 34.8633 13.006 34.9981 13.3671 34.9999H15.0481C15.4115 34.9999 15.7622 34.8651 16.0328 34.6223C16.3034 34.3795 16.4753 34.0451 16.5153 33.6834L17.0097 29.1326L18.003 21.5305L19.1287 22.4617C19.4421 22.7186 19.8337 22.8612 20.2385 22.8662C20.6437 22.8707 21.038 22.7373 21.3573 22.4872L24.7016 19.8573C25.0518 19.589 25.2911 19.2009 25.3738 18.7672C25.4571 18.3336 25.3784 17.8844 25.1523 17.5054C24.8858 17.0735 24.4492 16.7761 23.9502 16.6863C23.4518 16.5966 22.9383 16.7237 22.5389 17.0357L20.2799 18.8214L18.0003 16.9364C17.6829 16.674 17.284 16.5296 16.8719 16.5283H15.8381C15.608 16.5242 15.3887 16.6267 15.2446 16.8066L14.2108 18.0999L13.192 16.8116C13.0473 16.6248 12.8218 16.5187 12.5857 16.526H11.7989C10.9993 16.5269 10.2379 16.8704 9.70716 17.4694C9.17547 18.0675 8.92532 18.8652 9.01947 19.6606L9.64348 24.39C9.73035 25.1817 10.1947 25.8819 10.8888 26.27V26.2704ZM10.6595 18.3112C10.9488 17.9842 11.3645 17.7979 11.8007 17.801H12.3305L13.4972 19.2579C13.6677 19.472 13.9265 19.5972 14.2003 19.5972C14.4741 19.5972 14.7329 19.4724 14.9035 19.2579L16.0701 17.7988H16.8696C16.9861 17.7983 17.0989 17.8389 17.188 17.9136L19.8701 20.1279C20.1034 20.3165 20.4363 20.3165 20.6696 20.1279L23.3312 18.0361C23.4195 17.9678 23.5277 17.93 23.6392 17.929C23.8174 17.9327 23.9807 18.0297 24.0694 18.1842C24.194 18.4183 24.1281 18.7089 23.9143 18.8652L20.5673 21.4955C20.3827 21.6408 20.123 21.6408 19.9383 21.4955L17.9339 19.8245C17.7552 19.677 17.5109 19.6378 17.2953 19.723C17.0798 19.8077 16.9274 20.0031 16.8969 20.2327L15.7458 28.9927L15.2491 33.544C15.2377 33.6465 15.1513 33.7244 15.0481 33.7249H13.3671C13.2593 33.7226 13.1711 33.6388 13.1633 33.5313L12.1036 25.7557C12.0713 25.5229 11.9135 25.327 11.6933 25.2455C11.4809 25.168 11.2949 25.0318 11.1562 24.8532C11.0175 24.6747 10.932 24.4606 10.9092 24.2351L10.293 19.5029C10.2384 19.0715 10.3716 18.6374 10.6595 18.3117V18.3112Z" fill="white"/>
<path d="M33.3639 10.1758H18.6983C18.3467 10.1758 18.0615 10.4614 18.0615 10.8135C18.0615 11.1657 18.3467 11.4513 18.6983 11.4513H32.7067V13.1655H19.2077C18.8561 13.1655 18.5709 13.4511 18.5709 13.8032C18.5709 14.1554 18.8561 14.441 19.2077 14.441H30.4549V25.7366H19.4619C19.1103 25.7366 18.8252 26.0222 18.8252 26.3743C18.8252 26.7264 19.1103 27.0121 19.4619 27.0121H23.629V29.1167C23.0009 29.3207 22.5083 29.8136 22.3036 30.4432C22.0994 31.0723 22.2081 31.7611 22.5965 32.2963C22.9845 32.8316 23.6053 33.1482 24.2657 33.1482C24.9261 33.1482 25.5465 32.8316 25.9349 32.2963C26.3233 31.7611 26.432 31.0718 26.2278 30.4432C26.0236 29.8141 25.531 29.3207 24.9024 29.1167V27.0121H32.8595C33.2111 27.0121 33.4962 26.7264 33.4962 26.3743C33.4962 26.0222 33.2111 25.7366 32.8595 25.7366H31.7284V14.4415H33.3634C33.5322 14.4415 33.6941 14.374 33.8137 14.2547C33.9333 14.1353 34.0002 13.9727 34.0002 13.8037V10.8135C34.0002 10.6445 33.9329 10.4824 33.8137 10.3626C33.6945 10.2427 33.5326 10.1758 33.3634 10.1758H33.3639ZM24.2662 31.8722C24.0565 31.8722 23.8559 31.7888 23.7076 31.6408C23.5598 31.4923 23.4766 31.2914 23.4766 31.0814C23.4766 30.8714 23.5598 30.6705 23.7076 30.5224C23.8559 30.3739 24.0565 30.2906 24.2662 30.2906C24.4758 30.2906 24.6764 30.3739 24.8242 30.5224C24.9725 30.6705 25.0557 30.8718 25.0557 31.0814C25.0557 31.2909 24.9725 31.4923 24.8242 31.6408C24.6764 31.7888 24.4754 31.8722 24.2662 31.8722Z" fill="white"/>
</g>
<defs>
<clipPath id="clip0_609_16153">
<rect width="25" height="25" fill="white" transform="translate(9 10)"/>
</clipPath>
</defs>
</svg>
