<svg width="20" height="20" viewBox="0 0 20 20" fill="none" xmlns="http://www.w3.org/2000/svg">
<path d="M16.5814 13.3333H6.5814C5.80642 13.3333 5.41894 13.3333 5.10102 13.4184C4.23829 13.6496 3.56442 14.3235 3.33325 15.1862" stroke="#E43D30"/>
<path d="M6.66675 5.83325H13.3334" stroke="#E43D30" stroke-linecap="round"/>
<path d="M6.66675 8.75H10.8334" stroke="#E43D30" stroke-linecap="round"/>
<path d="M16.2501 15.8333H6.66675" stroke="#E43D30" stroke-linecap="round"/>
<path d="M8.33325 18.3334C5.97623 18.3334 4.79772 18.3334 4.06548 17.6012C3.33325 16.8689 3.33325 15.6904 3.33325 13.3334V6.66675C3.33325 4.30973 3.33325 3.13121 4.06548 2.39898C4.79772 1.66675 5.97623 1.66675 8.33325 1.66675H11.6666C14.0236 1.66675 15.2021 1.66675 15.9344 2.39898C16.6666 3.13121 16.6666 4.30973 16.6666 6.66675M11.6666 18.3334C14.0236 18.3334 15.2021 18.3334 15.9344 17.6012C16.6666 16.8689 16.6666 15.6904 16.6666 13.3334V10.0001" stroke="#E43D30" stroke-linecap="round"/>
</svg>
