<svg width="20" height="20" viewBox="0 0 20 20" fill="none" xmlns="http://www.w3.org/2000/svg">
<path d="M11.6667 18.3334H8.33341C5.19072 18.3334 3.61937 18.3334 2.64306 17.3571C1.66675 16.3808 1.66675 14.8094 1.66675 11.6667V10C1.66675 6.85734 1.66675 5.286 2.64306 4.30968C3.61937 3.33337 5.19072 3.33337 8.33341 3.33337H11.6667C14.8094 3.33337 16.3808 3.33337 17.3571 4.30968C18.3334 5.286 18.3334 6.85734 18.3334 10V11.6667C18.3334 14.8094 18.3334 16.3808 17.3571 17.3571C16.8128 17.9014 16.0835 18.1422 15.0001 18.2488" stroke="#CA3031" stroke-linecap="round"/>
<path d="M5.83325 3.33337V2.08337" stroke="#CA3031" stroke-linecap="round"/>
<path d="M14.1667 3.33337V2.08337" stroke="#CA3031" stroke-linecap="round"/>
<path d="M17.9167 7.5H13.8542H8.95841M1.66675 7.5H4.89592" stroke="#CA3031" stroke-linecap="round"/>
<path d="M14.9999 14.1667C14.9999 14.6269 14.6268 15 14.1666 15C13.7063 15 13.3333 14.6269 13.3333 14.1667C13.3333 13.7064 13.7063 13.3333 14.1666 13.3333C14.6268 13.3333 14.9999 13.7064 14.9999 14.1667Z" fill="#CA3031"/>
<path d="M14.9999 10.8333C14.9999 11.2936 14.6268 11.6667 14.1666 11.6667C13.7063 11.6667 13.3333 11.2936 13.3333 10.8333C13.3333 10.3731 13.7063 10 14.1666 10C14.6268 10 14.9999 10.3731 14.9999 10.8333Z" fill="#CA3031"/>
<path d="M10.8334 14.1667C10.8334 14.6269 10.4603 15 10.0001 15C9.53984 15 9.16675 14.6269 9.16675 14.1667C9.16675 13.7064 9.53984 13.3333 10.0001 13.3333C10.4603 13.3333 10.8334 13.7064 10.8334 14.1667Z" fill="#CA3031"/>
<path d="M10.8334 10.8333C10.8334 11.2936 10.4603 11.6667 10.0001 11.6667C9.53984 11.6667 9.16675 11.2936 9.16675 10.8333C9.16675 10.3731 9.53984 10 10.0001 10C10.4603 10 10.8334 10.3731 10.8334 10.8333Z" fill="#CA3031"/>
<path d="M6.66667 14.1667C6.66667 14.6269 6.29357 15 5.83333 15C5.3731 15 5 14.6269 5 14.1667C5 13.7064 5.3731 13.3333 5.83333 13.3333C6.29357 13.3333 6.66667 13.7064 6.66667 14.1667Z" fill="#CA3031"/>
<path d="M6.66667 10.8333C6.66667 11.2936 6.29357 11.6667 5.83333 11.6667C5.3731 11.6667 5 11.2936 5 10.8333C5 10.3731 5.3731 10 5.83333 10C6.29357 10 6.66667 10.3731 6.66667 10.8333Z" fill="#CA3031"/>
</svg>
