<svg width="20" height="20" viewBox="0 0 20 20" fill="none" xmlns="http://www.w3.org/2000/svg">
<path d="M5.37033 3.07098C5.80937 2.77763 6.27313 2.52809 6.75489 2.3244C7.92398 1.83012 8.50852 1.58298 9.2543 2.07737C10.0001 2.57175 10.0001 3.38113 10.0001 4.9999V6.66656C10.0001 8.23791 10.0001 9.02358 10.4882 9.51174C10.9764 9.99989 11.7621 9.99989 13.3334 9.99989H15.0001C16.6188 9.99989 17.4282 9.99989 17.9226 10.7457C18.417 11.4915 18.1699 12.076 17.6756 13.2451C17.4719 13.7268 17.2224 14.1906 16.929 14.6296C16.0133 16.0001 14.7118 17.0682 13.1891 17.6989C11.6664 18.3296 9.99084 18.4946 8.37433 18.1731C6.75782 17.8516 5.27297 17.0579 4.10753 15.8924C2.94209 14.727 2.14842 13.2422 1.82687 11.6256C1.50533 10.0091 1.67036 8.33358 2.30109 6.81087C2.44083 6.4735 2.60204 6.14699 2.78326 5.83313" stroke="#CA3031" stroke-linecap="round"/>
<path d="M12.0833 1.9292C15.0116 2.6829 17.317 4.98831 18.0707 7.91666" stroke="#CA3031" stroke-linecap="round"/>
</svg>
