<svg width="204" height="157" viewBox="0 0 204 157" fill="none" xmlns="http://www.w3.org/2000/svg">
<path d="M44.9593 56.9976H27.8694V60.4456H44.9593V56.9976Z" fill="#DBD7D7"/>
<path d="M78.3666 56.9976H61.2817V60.4456H78.3666V56.9976Z" fill="#DBD7D7"/>
<path d="M114.713 56.9976H97.6284V60.4456H114.713V56.9976Z" fill="#DBD7D7"/>
<path d="M24.6089 55.4539H18.0579V61.9941H24.6089V55.4539Z" fill="#EFEDED"/>
<path d="M57.9209 55.4539H51.3699V61.9941H57.9209V55.4539Z" fill="#B92E23"/>
<path d="M94.0669 55.4539H87.5159V61.9941H94.0669V55.4539Z" fill="#E43D30"/>
<path d="M204 118.741H0" stroke="#E2E0E0" stroke-width="1.32"/>
<path d="M14.04 100.484H7.78491V118.145H14.04V100.484Z" fill="#FAF9F9"/>
<path d="M21.9707 106.042H15.7156V118.14H21.9707V106.042Z" fill="#DBD7D7"/>
<path d="M29.8961 82.3716H23.646V118.14H29.8961V82.3716Z" fill="#EFEDED"/>
<path d="M46.3488 88.0847H40.0938V118.145H46.3488V88.0847Z" fill="#FAF9F9"/>
<path d="M54.2744 94.5449H48.0193V118.14H54.2744V94.5449Z" fill="#DBD7D7"/>
<path d="M62.1998 91.8435H55.9497V118.145H62.1998V91.8435Z" fill="#EFEDED"/>
<path d="M78.6525 93.9434H72.3975V118.14H78.6525V93.9434Z" fill="#FAF9F9"/>
<path d="M86.583 99.2808H80.3279V118.145H86.583V99.2808Z" fill="#DBD7D7"/>
<path d="M94.5084 82.3716H88.2583V118.14H94.5084V82.3716Z" fill="#EFEDED"/>
<path d="M110.951 65.3169H104.706V118.145H110.951V65.3169Z" fill="#FAF9F9"/>
<path d="M118.892 81.4695H112.632V118.14H118.892V81.4695Z" fill="#DBD7D7"/>
<path d="M126.812 71.5513H120.562V118.145H126.812V71.5513Z" fill="#EFEDED"/>
<path d="M143.26 101.832H137.01V118.14H143.26V101.832Z" fill="#FAF9F9"/>
<path d="M151.19 110.552H144.94V118.145H151.19V110.552Z" fill="#DBD7D7"/>
<path d="M159.121 101.316H152.871V118.145H159.121V101.316Z" fill="#EFEDED"/>
<path d="M175.569 88.0847H169.319V118.145H175.569V88.0847Z" fill="#FAF9F9"/>
<path d="M183.499 65.6877H177.244V118.14H183.499V65.6877Z" fill="#DBD7D7"/>
<path d="M191.434 79.8909H185.174V118.14H191.434V79.8909Z" fill="#EFEDED"/>
<path d="M153.784 77.5706H130.96C132.671 83.359 133.694 90.4004 133.333 98.0031C132.892 107.385 130.253 115.915 125.779 122.285H158.97C154.496 115.92 151.858 107.39 151.416 98.0031C151.055 90.4004 152.078 83.359 153.784 77.5706Z" fill="#B92E23"/>
<path d="M161.323 123.848C161.323 125.046 160.355 126.013 159.156 126.013H125.593C124.399 126.013 123.426 125.046 123.426 123.848C123.426 122.655 124.394 121.683 125.593 121.683H159.156C160.355 121.683 161.323 122.655 161.323 123.848Z" fill="#B92E23"/>
<path d="M172.785 151.492C172.785 152.69 171.817 153.657 170.618 153.657H114.126C112.928 153.657 111.959 152.69 111.959 151.492C111.959 150.299 112.928 149.327 114.126 149.327H170.618C171.812 149.327 172.785 150.294 172.785 151.492Z" fill="#B92E23"/>
<path d="M157.245 76.488C157.245 77.6858 156.272 78.6531 155.078 78.6531H129.666C128.472 78.6531 127.499 77.6858 127.499 76.488C127.499 75.2902 128.472 74.323 129.666 74.323H155.078C156.272 74.323 157.245 75.2902 157.245 76.488Z" fill="#B92E23"/>
<path d="M148.246 47.7612C148.246 48.959 147.278 49.9263 146.079 49.9263H138.665C137.471 49.9263 136.498 48.959 136.498 47.7612C136.498 46.5634 137.466 45.5962 138.665 45.5962H146.079C147.278 45.5962 148.246 46.5634 148.246 47.7612Z" fill="#B92E23"/>
<path d="M154.291 69.156C154.291 70.3488 153.322 71.316 152.124 71.316H132.621C131.427 71.316 130.459 70.3488 130.459 69.156C130.459 67.9582 131.427 66.991 132.621 66.991H152.124C153.317 66.991 154.291 67.9582 154.291 69.156Z" fill="#B92E23"/>
<path d="M148.873 123.728C146.611 123.728 144.429 124.109 142.377 124.81C140.325 124.109 138.143 123.728 135.881 123.728C123.918 123.728 114.222 134.272 114.222 147.283C114.222 148.425 114.302 149.548 114.447 150.65H170.302C170.447 149.553 170.522 148.425 170.522 147.283C170.522 134.272 160.826 123.728 148.868 123.728H148.873Z" fill="#B92E23"/>
<path d="M147.91 41.1458C147.91 44.1979 145.432 46.6736 142.377 46.6736C139.322 46.6736 136.844 44.1979 136.844 41.1458C136.844 38.0937 139.322 35.6179 142.377 35.6179C145.432 35.6179 147.91 38.0937 147.91 41.1458Z" fill="#B92E23"/>
<path d="M145.522 36.6052C142.633 36.7856 140.341 39.1662 140.341 42.098C140.341 43.9824 141.289 45.6412 142.728 46.6385C145.623 46.4531 147.915 44.0776 147.915 41.1458C147.915 39.2614 146.967 37.6025 145.527 36.6052H145.522Z" fill="#E43D30"/>
<path d="M162.823 57.3736C162.903 59.704 153.673 62.3051 142.372 62.6609C131.071 62.3051 121.841 59.704 121.921 57.3736C121.921 55.1384 130.519 46.9343 142.372 46.6687C154.225 46.9343 162.828 55.1384 162.823 57.3736Z" fill="#B92E23"/>
<path d="M162.823 57.3735C162.833 58.5111 157.461 76.097 142.372 76.7836C127.284 76.092 121.912 58.5111 121.922 57.3735C121.375 55.9953 131.026 53.0133 142.372 52.0862C153.724 53.0133 163.37 55.9953 162.823 57.3735Z" fill="#B92E23"/>
<path d="M155.555 73.1201C155.555 74.3179 154.586 75.2851 153.388 75.2851H131.362C130.168 75.2851 129.2 74.3179 129.2 73.1201C129.2 71.9273 130.168 70.9551 131.362 70.9551H153.388C154.586 70.9551 155.555 71.9223 155.555 73.1201Z" fill="#E43D30"/>
<path d="M151.416 98.0028C151.075 90.8612 151.968 84.2308 153.493 78.6528H142.362V121.683H158.589C154.361 115.383 151.848 107.104 151.421 98.0078L151.416 98.0028Z" fill="#E43D30"/>
<path d="M148.873 123.728C152.184 123.728 155.314 124.56 158.123 126.008H159.156C160.355 126.008 161.323 125.041 161.323 123.843C161.323 122.645 160.355 121.678 159.156 121.678H142.357V124.8C142.357 124.8 142.372 124.8 142.372 124.805C144.424 124.104 146.606 123.723 148.868 123.723L148.873 123.728Z" fill="#E43D30"/>
<path d="M170.618 149.327H170.432C170.397 149.773 170.357 150.214 170.302 150.65H142.357V153.652H170.618C171.812 153.652 172.785 152.685 172.785 151.487C172.785 150.29 171.817 149.322 170.618 149.322V149.327Z" fill="#E43D30"/>
<path d="M155.078 78.6528C156.272 78.6528 157.245 77.6856 157.245 76.4878C157.245 75.29 156.327 74.3879 155.178 74.3328C154.787 74.9041 154.13 75.28 153.388 75.28H148.908C146.967 76.1219 144.8 76.6732 142.377 76.7835C142.377 76.7835 142.367 76.7835 142.362 76.7835V78.6478H155.083L155.078 78.6528Z" fill="#E43D30"/>
<path d="M148.216 47.4654C148.071 46.413 147.178 45.6011 146.079 45.6011H145.628C144.725 46.2676 143.611 46.6686 142.403 46.6736C144.449 46.7237 146.39 47.0194 148.211 47.4654H148.216Z" fill="#E43D30"/>
<path d="M148.908 75.28H153.388C154.135 75.28 154.792 74.9041 155.178 74.3328C155.414 73.987 155.555 73.566 155.555 73.115C155.555 72.4133 155.219 71.8019 154.697 71.406C153.057 72.9496 151.135 74.3128 148.903 75.28H148.908Z" fill="#E43D30"/>
<path d="M170.302 150.65C170.357 150.214 170.397 149.768 170.432 149.327C170.493 148.656 170.523 147.974 170.523 147.287C170.523 137.881 165.441 129.787 158.118 126.013C155.309 124.565 152.179 123.733 148.868 123.733C146.606 123.733 144.424 124.114 142.372 124.815C142.372 124.815 142.362 124.815 142.357 124.81V150.655H170.302V150.65Z" fill="#E43D30"/>
<path d="M162.753 57.0277C162.161 54.8827 156.473 49.5002 148.211 47.4654C146.39 47.0144 144.449 46.7187 142.402 46.6736C142.392 46.6736 142.382 46.6736 142.372 46.6736C142.372 46.6736 142.362 46.6736 142.357 46.6736V52.0912C142.357 52.0912 142.367 52.0912 142.372 52.0912C152.851 52.9482 161.855 55.5492 162.753 57.0327V57.0277Z" fill="#E43D30"/>
<path d="M148.908 75.2801C151.135 74.3129 153.062 72.9497 154.702 71.4061C160.536 65.9183 162.838 58.1202 162.828 57.3735C162.868 57.2682 162.828 57.148 162.758 57.0277C161.86 55.5442 152.856 52.9432 142.377 52.0862C142.377 52.0862 142.367 52.0862 142.362 52.0862V76.7836H142.372C144.8 76.6733 146.972 76.1221 148.908 75.2801Z" fill="#E43D30"/>
<path d="M157.245 76.488C157.245 77.6858 156.272 78.6531 155.078 78.6531H129.666C128.472 78.6531 127.499 77.6858 127.499 76.488C127.499 75.2902 128.472 74.323 129.666 74.323H155.078C156.272 74.323 157.245 75.2902 157.245 76.488Z" fill="#B92E23"/>
<path d="M141.274 77.5454C141.274 77.9513 141.394 78.3272 141.59 78.653H155.083C156.277 78.653 157.25 77.6857 157.25 76.4879C157.25 76.082 157.13 75.7061 156.939 75.3804H143.446C142.252 75.3804 141.279 76.3476 141.279 77.5454H141.274Z" fill="#E43D30"/>
<path d="M161.323 123.848C161.323 125.046 160.355 126.013 159.156 126.013H125.593C124.399 126.013 123.426 125.046 123.426 123.848C123.426 122.655 124.394 121.683 125.593 121.683H159.156C160.355 121.683 161.323 122.655 161.323 123.848Z" fill="#B92E23"/>
<path d="M161.323 123.848C161.323 123.442 161.203 123.066 161.012 122.74H143.446C142.252 122.74 141.279 123.708 141.279 124.906C141.279 125.311 141.399 125.687 141.595 126.008H159.161C160.36 126.008 161.328 125.041 161.328 123.843L161.323 123.848Z" fill="#E43D30"/>
<path d="M161.323 151.492C161.323 151.086 161.203 150.711 161.012 150.385H143.446C142.252 150.385 141.279 151.352 141.279 152.55C141.279 152.956 141.399 153.332 141.595 153.652H159.161C160.36 153.652 161.328 152.685 161.328 151.487L161.323 151.492Z" fill="#E43D30"/>
<path d="M139.097 72.5388C139.097 72.9448 138.771 73.2755 138.364 73.2755H130.885C130.479 73.2755 130.148 72.9448 130.148 72.5388C130.148 72.1329 130.479 71.8071 130.885 71.8071H138.364C138.771 71.8071 139.097 72.1379 139.097 72.5388Z" fill="#B92E23"/>
</svg>
