<svg width="20" height="20" viewBox="0 0 20 20" fill="none" xmlns="http://www.w3.org/2000/svg">
<path d="M14.1667 2.0466C14.7847 2.16452 15.151 2.29412 15.4675 2.68399C15.864 3.17223 15.843 3.69994 15.8011 4.75535C15.6505 8.54958 14.8002 13.3333 10.0002 13.3333C5.20026 13.3333 4.34994 8.54958 4.19931 4.75535C4.1574 3.69994 4.13645 3.17223 4.53289 2.68399C4.92932 2.19574 5.40379 2.11569 6.35273 1.95558C7.28945 1.79753 8.51392 1.66663 10.0002 1.66663C10.5987 1.66663 11.1548 1.68786 11.6667 1.72354" stroke="#CA3031" stroke-linecap="round"/>
<path d="M15.8333 4.16663L16.6238 4.43013C17.4488 4.70515 17.8613 4.84266 18.0973 5.17003C18.3332 5.4974 18.3332 5.93223 18.3332 6.80191L18.3332 6.86235C18.3332 7.57963 18.3332 7.93828 18.1605 8.2317C17.9879 8.52513 17.6743 8.69931 17.0473 9.04766L14.5833 10.4166" stroke="#CA3031"/>
<path d="M4.1667 4.16663L3.37618 4.43013C2.55113 4.70515 2.13861 4.84266 1.90266 5.17003C1.66671 5.4974 1.66673 5.93223 1.66675 6.80191L1.66675 6.86235C1.66677 7.57963 1.66678 7.93828 1.83944 8.2317C2.01209 8.52513 2.32561 8.69931 2.95262 9.04766L5.4167 10.4166" stroke="#CA3031"/>
<path d="M10 14.1666V15.8333" stroke="#CA3031" stroke-linecap="round"/>
<path d="M12.9166 18.3333H7.08325L7.36594 16.9199C7.44384 16.5304 7.78585 16.25 8.18309 16.25H11.8167C12.214 16.25 12.556 16.5304 12.6339 16.9199L12.9166 18.3333Z" stroke="#CA3031" stroke-linecap="round" stroke-linejoin="round"/>
<path d="M15 18.3334H5" stroke="#CA3031" stroke-linecap="round"/>
</svg>
