<svg width="42" height="40" viewBox="0 0 42 40" fill="none" xmlns="http://www.w3.org/2000/svg">
<path fill-rule="evenodd" clip-rule="evenodd" d="M39.4006 8.71473L24.0214 21.5633C22.2718 23.0268 19.7294 23.0268 17.9798 21.5633L2.60059 8.71473V8.64956H39.4006V8.71473ZM39.3998 31.2116L27.2078 21.0245L39.3998 10.8382V31.2116ZM39.4006 33.4009H2.60059V33.3366L16.0638 22.0877L16.9718 22.8467C18.139 23.8227 19.5694 24.3102 21.0006 24.3102C22.431 24.3102 23.8622 23.8227 25.0294 22.8467L25.9374 22.0877L39.4006 33.3366V33.4009ZM2.60059 10.8382L14.7926 21.0245L2.60059 31.2116V10.8382ZM1.00024 35.05H41.0002V7H1.00024V35.05Z" fill="#E43D30"/>
<path d="M39.4006 8.71473L39.4968 8.82985L39.5506 8.78488V8.71473H39.4006ZM24.0214 21.5633L23.9252 21.4482L23.9251 21.4482L24.0214 21.5633ZM17.9798 21.5633L18.076 21.4482L18.076 21.4482L17.9798 21.5633ZM2.60059 8.71473H2.45059V8.78488L2.50442 8.82985L2.60059 8.71473ZM2.60059 8.64956V8.49956H2.45059V8.64956H2.60059ZM39.4006 8.64956H39.5506V8.49956H39.4006V8.64956ZM39.3998 31.2116L39.3036 31.3267L39.5498 31.5324V31.2116H39.3998ZM27.2078 21.0245L27.1116 20.9094L26.9739 21.0245L27.1116 21.1396L27.2078 21.0245ZM39.3998 10.8382H39.5498V10.5174L39.3036 10.7231L39.3998 10.8382ZM39.4006 33.4009V33.5509H39.5506V33.4009H39.4006ZM2.60059 33.4009H2.45059V33.5509H2.60059V33.4009ZM2.60059 33.3366L2.50442 33.2215L2.45059 33.2664V33.3366H2.60059ZM16.0638 22.0877L16.16 21.9726L16.0638 21.8922L15.9676 21.9726L16.0638 22.0877ZM16.9718 22.8467L17.068 22.7316L17.068 22.7316L16.9718 22.8467ZM25.0294 22.8467L24.9332 22.7316L24.9332 22.7316L25.0294 22.8467ZM25.9374 22.0877L26.0336 21.9726L25.9374 21.8922L25.8412 21.9726L25.9374 22.0877ZM39.4006 33.3366H39.5506V33.2664L39.4968 33.2215L39.4006 33.3366ZM2.60059 10.8382L2.69677 10.7231L2.45059 10.5174V10.8382H2.60059ZM14.7926 21.0245L14.8888 21.1396L15.0265 21.0245L14.8888 20.9094L14.7926 21.0245ZM2.60059 31.2116H2.45059V31.5324L2.69677 31.3267L2.60059 31.2116ZM1.00024 35.05H0.850244V35.2H1.00024V35.05ZM41.0002 35.05V35.2H41.1502V35.05H41.0002ZM41.0002 7H41.1502V6.85H41.0002V7ZM1.00024 7V6.85H0.850244V7H1.00024ZM39.3044 8.59962L23.9252 21.4482L24.1176 21.6784L39.4968 8.82985L39.3044 8.59962ZM23.9251 21.4482C22.2313 22.8652 19.7699 22.8652 18.076 21.4482L17.8835 21.6783C19.6889 23.1885 22.3123 23.1885 24.1176 21.6783L23.9251 21.4482ZM18.076 21.4482L2.69677 8.59962L2.50442 8.82985L17.8836 21.6784L18.076 21.4482ZM2.75059 8.71473V8.64956H2.45059V8.71473H2.75059ZM2.60059 8.79956H39.4006V8.49956H2.60059V8.79956ZM39.2506 8.64956V8.71473H39.5506V8.64956H39.2506ZM39.496 31.0965L27.304 20.9094L27.1116 21.1396L39.3036 31.3267L39.496 31.0965ZM27.304 21.1396L39.496 10.9533L39.3036 10.7231L27.1116 20.9094L27.304 21.1396ZM39.2498 10.8382V31.2116H39.5498V10.8382H39.2498ZM39.4006 33.2509H2.60059V33.5509H39.4006V33.2509ZM2.75059 33.4009V33.3366H2.45059V33.4009H2.75059ZM2.69677 33.4517L16.16 22.2028L15.9676 21.9726L2.50442 33.2215L2.69677 33.4517ZM15.9676 22.2028L16.8756 22.9618L17.068 22.7316L16.16 21.9726L15.9676 22.2028ZM16.8756 22.9618C18.0706 23.961 19.5353 24.4602 21.0006 24.4602V24.1602C19.6035 24.1602 18.2074 23.6844 17.068 22.7316L16.8756 22.9618ZM21.0006 24.4602C22.4651 24.4602 23.9306 23.961 25.1256 22.9618L24.9332 22.7316C23.7938 23.6843 22.3969 24.1602 21.0006 24.1602V24.4602ZM25.1256 22.9618L26.0336 22.2028L25.8412 21.9726L24.9332 22.7316L25.1256 22.9618ZM25.8412 22.2028L39.3044 33.4517L39.4968 33.2215L26.0336 21.9726L25.8412 22.2028ZM39.2506 33.3366V33.4009H39.5506V33.3366H39.2506ZM2.50442 10.9533L14.6964 21.1396L14.8888 20.9094L2.69677 10.7231L2.50442 10.9533ZM14.6964 20.9094L2.50442 31.0965L2.69677 31.3267L14.8888 21.1396L14.6964 20.9094ZM2.75059 31.2116V10.8382H2.45059V31.2116H2.75059ZM1.00024 35.2H41.0002V34.9H1.00024V35.2ZM41.1502 35.05V7H40.8502V35.05H41.1502ZM41.0002 6.85H1.00024V7.15H41.0002V6.85ZM0.850244 7V35.05H1.15024V7H0.850244Z" fill="#E43D30"/>
</svg>
