<svg width="22" height="22" viewBox="0 0 22 22" fill="none" xmlns="http://www.w3.org/2000/svg">
<path d="M21.8714 6.67005C21.8541 5.79903 21.6878 4.93721 21.3797 4.12122C21.1136 3.42048 20.6963 2.78568 20.1571 2.26108C19.6268 1.72666 18.9852 1.31333 18.277 1.04997C17.4533 0.74475 16.5832 0.5801 15.7038 0.563022C14.5732 0.511545 14.2122 0.499023 11.3328 0.499023C8.4534 0.499023 8.09312 0.511545 6.96244 0.562327C6.08309 0.579471 5.21304 0.744119 4.38925 1.04928C3.68193 1.3134 3.04129 1.72719 2.51202 2.26178C1.97258 2.7861 1.55508 3.42067 1.28864 4.12122C0.98051 4.9372 0.814287 5.79903 0.797033 6.67005C0.745063 7.79003 0.732422 8.14759 0.732422 10.999C0.732422 13.8505 0.745063 14.2087 0.79633 15.3287C0.813585 16.1997 0.979808 17.0615 1.28793 17.8775C1.55417 18.578 1.97143 19.2126 2.51062 19.737C3.04016 20.2722 3.6813 20.6865 4.38925 20.9509C5.21302 21.2561 6.08308 21.4208 6.96244 21.4378C8.09312 21.4886 8.4541 21.5011 11.3328 21.5011C14.2115 21.5011 14.5732 21.4893 15.7031 21.4378C16.5825 21.4207 17.4526 21.2561 18.2763 20.9509C18.9814 20.6812 19.6217 20.2685 20.1561 19.7392C20.6906 19.21 21.1074 18.5758 21.3797 17.8775C21.6879 17.0615 21.8541 16.1997 21.8714 15.3287C21.9226 14.2087 21.9353 13.8512 21.9353 10.9997C21.9353 8.14829 21.9212 7.79003 21.8714 6.67005ZM19.9618 15.2424C19.9536 15.9076 19.8301 16.5665 19.5966 17.1902C19.4208 17.6432 19.1512 18.0548 18.8051 18.3984C18.4591 18.742 18.0443 19.01 17.5874 19.1853C16.9577 19.4165 16.2925 19.5389 15.621 19.5471C14.5036 19.5978 14.1679 19.6083 11.337 19.6083C8.50607 19.6083 8.17108 19.5978 7.05303 19.5471C6.38149 19.5389 5.71636 19.4165 5.08662 19.1853C4.62609 19.0171 4.20949 18.7487 3.86744 18.3999C3.51358 18.0623 3.24071 17.6504 3.06894 17.1944C2.83552 16.5706 2.71199 15.9118 2.70375 15.2466C2.65248 14.1391 2.64195 13.8073 2.64195 11.0032C2.64195 8.19907 2.65248 7.86725 2.70375 6.75979C2.71208 6.09461 2.8356 5.43578 3.06894 4.812C3.23841 4.35404 3.50962 3.93966 3.86253 3.59949C4.20423 3.25051 4.62061 2.9819 5.081 2.81342C5.71254 2.5818 6.37964 2.45967 7.05303 2.45238C8.17108 2.4016 8.50607 2.39117 11.337 2.39117C14.1672 2.39117 14.5029 2.4016 15.621 2.45238C16.2925 2.46057 16.9576 2.58293 17.5874 2.81412C18.0476 2.98252 18.464 3.25088 18.8059 3.59949C19.158 3.93824 19.429 4.35091 19.5987 4.80713C19.8323 5.43086 19.9558 6.08972 19.9639 6.75492C20.0152 7.86238 20.0257 8.1942 20.0257 10.9983C20.0257 13.8025 20.0131 14.1336 19.9618 15.2424Z" fill="#DBDBDB"/>
<path d="M11.3311 6.16895C10.3667 6.16895 9.42398 6.45221 8.62212 6.98292C7.82027 7.51363 7.1953 8.26794 6.82624 9.15048C6.45719 10.033 6.36063 11.0041 6.54877 11.941C6.73691 12.8779 7.2013 13.7385 7.88323 14.414C8.56515 15.0895 9.43397 15.5494 10.3798 15.7358C11.3257 15.9222 12.3061 15.8265 13.197 15.461C14.088 15.0954 14.8495 14.4764 15.3853 13.6821C15.9211 12.8878 16.2071 11.954 16.2071 10.9988C16.2071 9.71782 15.6934 8.48934 14.7789 7.58357C13.8645 6.6778 12.6243 6.16895 11.3311 6.16895ZM11.3311 14.134C10.7051 14.134 10.0931 13.9501 9.57257 13.6056C9.05206 13.2611 8.64637 12.7715 8.4068 12.1986C8.16723 11.6257 8.10455 10.9953 8.22668 10.3871C8.34881 9.77894 8.65027 9.2203 9.09293 8.78182C9.5356 8.34335 10.0996 8.04474 10.7136 7.92377C11.3276 7.80279 11.964 7.86488 12.5424 8.10218C13.1207 8.33948 13.6151 8.74133 13.9629 9.25692C14.3107 9.77251 14.4963 10.3787 14.4963 10.9988C14.4963 11.8303 14.1628 12.6278 13.5692 13.2157C12.9756 13.8037 12.1705 14.134 11.3311 14.134Z" fill="#DBDBDB"/>
<path d="M18.3187 5.47804C18.3187 5.75472 18.2359 6.02519 18.0807 6.25524C17.9255 6.48529 17.705 6.6646 17.4469 6.77048C17.1888 6.87636 16.9049 6.90407 16.6309 6.85009C16.3569 6.79611 16.1053 6.66287 15.9078 6.46723C15.7103 6.27159 15.5758 6.02232 15.5213 5.75095C15.4668 5.47959 15.4948 5.19831 15.6016 4.94269C15.7085 4.68707 15.8896 4.46858 16.1218 4.31486C16.3541 4.16115 16.6271 4.0791 16.9064 4.0791C17.281 4.0791 17.6402 4.22649 17.9051 4.48884C18.17 4.75119 18.3187 5.10702 18.3187 5.47804Z" fill="#DBDBDB"/>
</svg>
