<svg width="250" height="41" viewBox="0 0 250 41" fill="none" xmlns="http://www.w3.org/2000/svg">
<g clip-path="url(#clip0_897_1634)">
<path d="M13.9169 30.2332C13.4582 30.2332 13.2488 30.2731 12.7502 30.4825L12.0023 30.8215C11.0051 31.2902 9.26005 31.5894 7.92382 31.5894C3.80544 31.5894 0.983398 29.1961 0.983398 25.7458C0.983398 23.8213 1.90081 22.1659 3.55614 21.0989C4.96218 20.1616 7.12607 19.1744 9.32986 18.4564L12.3613 17.4393C13.2787 17.1002 13.5679 16.8011 13.5679 16.113V15.1756C13.5679 13.3408 12.4411 12.5331 9.99797 12.5331C7.79419 12.5331 5.30122 13.1713 3.76555 14.1585C3.38662 14.4078 3.26696 14.4577 3.01766 14.4577C2.63873 14.4577 2.42932 14.2483 2.42932 13.8594V12.1542C2.42932 11.5559 2.5091 11.2966 2.84814 11.0872C4.09462 10.2795 7.83408 9.55151 10.5365 9.55151C15.1036 9.55151 17.4769 11.516 17.4769 15.3551V30.6321C17.4769 30.9711 17.1877 31.2703 16.8486 31.2703H14.7346C14.1961 31.2703 13.9867 31.021 13.9867 30.4625V30.2531H13.9069L13.9169 30.2332ZM9.29994 21.3981C5.92945 22.5548 5.0619 23.4423 5.0619 25.5763C5.0619 27.5807 6.34827 28.6078 8.88112 28.6078C10.1276 28.6078 11.3741 28.3585 12.3713 27.9297C13.3286 27.461 13.5779 27.0721 13.5779 25.7957V19.8624L9.29994 21.3981Z" fill="white"/>
<path d="M34.2794 10.3094C34.3591 10.0601 34.6084 9.88062 34.9076 9.88062H37.0216C37.4803 9.88062 37.7695 10.0501 37.7695 10.439C37.7695 10.5288 37.6897 10.7382 37.6 11.0374L31.2878 29.595C31.1183 30.0637 30.9089 30.662 30.7892 30.9612C30.5 31.4697 30.2009 31.5994 29.2535 31.5994H27.5085C26.3417 31.5994 26.0526 31.3899 25.6836 30.323L25.4742 29.6848L19.1221 11.0473C19.0423 10.8379 19.0024 10.6584 19.0024 10.4889C19.0024 10.0601 19.2916 9.89059 19.9597 9.89059H22.5823C22.8715 9.89059 23.0809 10.0601 23.1707 10.3194L28.745 27.7303L34.3192 10.3194L34.2794 10.3094Z" fill="white"/>
<path d="M42.0471 1.39453C43.5828 1.39453 44.3706 2.25211 44.3706 3.78778C44.3706 5.32345 43.5828 6.18103 41.9973 6.18103C40.4117 6.18103 39.6738 5.32345 39.6738 3.74789C39.6738 2.30197 40.5414 1.4045 42.0372 1.4045L42.0471 1.39453Z" fill="#E43D30"/>
<path d="M40.103 30.6221V10.5188C40.103 10.1798 40.3922 9.88062 40.7313 9.88062H43.3539C43.7328 9.88062 43.9821 10.1798 43.9821 10.5188V30.6121C43.9821 30.9512 43.7328 31.2503 43.3539 31.2503H40.7313C40.4022 31.2503 40.103 30.9512 40.103 30.6121V30.6221Z" fill="white"/>
<path d="M63.8258 28.2688C64.1549 28.2688 64.4541 28.5679 64.4541 28.9069V30.6121C64.4541 30.9512 64.1649 31.2503 63.8258 31.2503H48.3694C48.0404 31.2503 47.7412 30.9512 47.7412 30.6121V28.3485C47.7412 27.6704 47.8609 27.2416 48.1999 26.8527L59.498 12.8622H48.7783C48.4492 12.8622 48.1501 12.563 48.1501 12.224V10.5188C48.1501 10.1798 48.4392 9.88062 48.7783 9.88062H63.407C63.7361 9.88062 64.0353 10.1798 64.0353 10.5188V12.4833C64.0353 13.2511 63.9954 13.3409 63.4469 14.0189L51.8496 28.2688H63.8258Z" fill="white"/>
<path d="M79.4916 30.2332C79.0329 30.2332 78.8235 30.2731 78.3249 30.4825L77.577 30.8215C76.5798 31.2902 74.8348 31.5894 73.4985 31.5894C69.3801 31.5894 66.5581 29.1961 66.5581 25.7458C66.5581 23.8213 67.4755 22.1659 69.1309 21.0989C70.5369 20.1616 72.7008 19.1744 74.9046 18.4564L77.936 17.4393C78.8534 17.1002 79.1426 16.8011 79.1426 16.113V15.1756C79.1426 13.3408 78.0158 12.5331 75.5727 12.5331C73.3689 12.5331 70.8759 13.1713 69.3403 14.1585C68.9613 14.4078 68.8417 14.4577 68.5924 14.4577C68.2134 14.4577 68.004 14.2483 68.004 13.8594V12.1542C68.004 11.5559 68.0838 11.2966 68.4228 11.0872C69.6693 10.2795 73.4088 9.55151 76.1112 9.55151C80.6783 9.55151 83.0516 11.516 83.0516 15.3551V30.6321C83.0516 30.9711 82.7624 31.2703 82.4234 31.2703H80.3093C79.7708 31.2703 79.5614 31.021 79.5614 30.4625V30.2531H79.4817L79.4916 30.2332ZM74.8746 21.3981C71.5042 22.5548 70.6366 23.4423 70.6366 25.5763C70.6366 27.5807 71.923 28.6078 74.4558 28.6078C75.7023 28.6078 76.9488 28.3585 77.946 27.9297C78.9033 27.461 79.1526 27.0721 79.1526 25.7957V19.8624L74.8746 21.3981Z" fill="white"/>
<path d="M108.721 30.1831C108.262 30.1831 108.062 30.223 107.564 30.4324L106.826 30.7715C105.839 31.2402 104.104 31.5293 102.787 31.5293C98.7088 31.5293 95.9067 29.156 95.9067 25.7257C95.9067 23.8211 96.8142 22.1657 98.4595 21.1087C99.8656 20.1813 102.01 19.2041 104.193 18.4861L107.205 17.469C108.112 17.13 108.401 16.8308 108.401 16.1527V15.2253C108.401 13.4104 107.285 12.6027 104.861 12.6027C102.678 12.6027 100.205 13.2409 98.6789 14.2082C98.31 14.4575 98.1903 14.4974 97.941 14.4974C97.572 14.4974 97.3626 14.288 97.3626 13.909V12.2138C97.3626 11.6255 97.4424 11.3662 97.7815 11.1568C99.018 10.3491 102.727 9.6311 105.41 9.6311C109.947 9.6311 112.291 11.5756 112.291 15.3849V30.5421C112.291 30.8812 112.001 31.1803 111.672 31.1803H109.568C109.03 31.1803 108.83 30.931 108.83 30.3726V30.1632H108.751V30.1831H108.721ZM104.134 21.4179C100.793 22.5547 99.9254 23.4521 99.9254 25.5662C99.9254 27.5605 101.202 28.5677 103.725 28.5677C104.961 28.5677 106.198 28.3184 107.195 27.8896C108.142 27.4209 108.392 27.042 108.392 25.7756V19.8922L104.144 21.4179H104.134Z" fill="white" stroke="white" stroke-width="0.2"/>
<path d="M131.616 26.9723C131.905 26.9723 132.155 27.2615 132.155 27.7301V29.4254C132.155 29.9339 132.035 30.1433 131.616 30.3527C130.21 31.0707 127.817 31.5394 125.683 31.5394C119.211 31.5394 115.372 27.5207 115.372 20.6601C115.372 13.7994 119.49 9.65112 126.211 9.65112C127.986 9.65112 129.752 9.99017 131.407 10.7081C131.985 10.9176 132.145 11.1369 132.145 11.5159V13.5102C132.145 13.939 131.935 14.2282 131.606 14.2282C131.397 14.2282 131.317 14.1883 130.948 13.9789C129.213 13.0017 127.857 12.6227 126.122 12.6227C121.834 12.6227 119.401 15.4647 119.401 20.5005C119.401 25.5363 121.914 28.5877 126.202 28.5877C127.727 28.5877 129.293 28.1689 130.779 27.3113L130.988 27.2216C131.237 27.052 131.437 26.9723 131.606 26.9723H131.616Z" fill="white" stroke="white" stroke-width="0.2"/>
<path d="M148.079 30.1831C147.631 30.1831 147.421 30.223 146.923 30.4324L146.185 30.7715C145.198 31.2402 143.462 31.5293 142.146 31.5293C138.068 31.5293 135.266 29.156 135.266 25.7257C135.266 23.8211 136.173 22.1657 137.818 21.1087C139.224 20.1813 141.368 19.2041 143.552 18.4861L146.564 17.469C147.471 17.13 147.76 16.8308 147.76 16.1527V15.2253C147.76 13.4104 146.644 12.6027 144.22 12.6027C142.037 12.6027 139.564 13.2409 138.038 14.2082C137.669 14.4575 137.539 14.4974 137.3 14.4974C136.931 14.4974 136.722 14.288 136.722 13.909V12.2138C136.722 11.6255 136.801 11.3662 137.14 11.1568C138.377 10.3491 142.086 9.6311 144.769 9.6311C149.306 9.6311 151.649 11.5756 151.649 15.3849V30.5421C151.649 30.8812 151.36 31.1803 151.031 31.1803H148.927C148.389 31.1803 148.189 30.931 148.189 30.3726V30.1632H148.109V30.1831H148.079ZM143.492 21.4179C140.152 22.5547 139.284 23.4521 139.284 25.5662C139.284 27.5605 140.561 28.5677 143.084 28.5677C144.32 28.5677 145.557 28.3184 146.544 27.8896C147.491 27.4209 147.74 27.042 147.74 25.7756V19.8922L143.492 21.4179Z" fill="white" stroke="white" stroke-width="0.2"/>
<path d="M170.077 30.2231C169.788 30.2231 169.539 30.263 169.25 30.4325L168.881 30.6021C167.644 31.2403 166.198 31.5294 164.633 31.5294C158.61 31.5294 154.741 27.3014 154.741 20.7399C154.741 14.1784 158.859 9.65115 164.673 9.65115C166.119 9.65115 167.634 9.9902 168.512 10.5785L168.931 10.8677C169.22 11.0372 169.3 11.0771 169.629 11.0372H169.709V2.20216C169.709 1.86312 169.998 1.56396 170.327 1.56396H172.919C173.288 1.56396 173.538 1.85315 173.538 2.20216V30.5622C173.538 30.9012 173.249 31.2004 172.919 31.2004H170.775C170.407 31.2004 170.117 30.9112 170.117 30.4824V30.2331H170.077V30.2231ZM168.801 13.3806C167.973 12.8721 166.827 12.6228 165.54 12.6228C163.436 12.6228 161.701 13.3407 160.514 14.7767C159.238 16.2525 158.779 17.8181 158.779 20.8695C158.779 25.6959 161.292 28.5678 165.5 28.5678C166.328 28.5678 167.146 28.4382 167.854 28.2288C169.26 27.7601 169.709 27.2116 169.709 25.9851V15.3152C169.709 14.298 169.459 13.7895 168.801 13.3707V13.3806Z" fill="white" stroke="white" stroke-width="0.2"/>
<path d="M180.468 21.2983C180.468 25.6561 183.151 28.5778 187.189 28.5778C188.625 28.5778 190.53 27.9895 192.175 27.0122L192.504 26.8427C192.664 26.7131 192.913 26.6732 193.043 26.6732C193.372 26.6732 193.621 26.9624 193.621 27.3513V29.0066C193.621 29.6847 193.502 29.8542 192.714 30.1933C190.939 31.0409 188.635 31.5494 186.571 31.5494C180.468 31.5494 176.639 27.4011 176.639 20.8396C176.639 14.2781 180.229 9.67114 185.953 9.67114C191.308 9.67114 194.818 13.4804 194.818 19.2741V20.4208C194.818 20.7599 194.569 21.059 194.2 21.059H180.468V21.3083V21.2983ZM190.979 17.6586C190.979 14.6571 188.875 12.573 185.783 12.573C182.692 12.573 180.508 14.8565 180.458 18.0774H190.969V17.6586H190.979Z" fill="white" stroke="white" stroke-width="0.2"/>
<path d="M201.409 11.0572C201.828 11.0572 202.147 10.9675 202.566 10.8079L203.513 10.429C204.71 9.96033 206.106 9.67114 207.223 9.67114C209.327 9.67114 211.182 10.3891 212.618 11.7453H213.116C215.091 10.429 217.564 9.67114 219.797 9.67114C224.295 9.67114 227.137 12.3835 227.137 16.7412V30.5822C227.137 30.9212 226.848 31.2204 226.519 31.2204H223.876C223.547 31.2204 223.258 30.9312 223.258 30.5822V17.0802C223.258 14.1186 221.812 12.6328 218.93 12.6328C217.943 12.6328 216.956 12.8023 216.168 13.0516C214.891 13.5203 214.433 14.1984 214.433 15.5446V30.5722C214.433 30.9112 214.143 31.2104 213.814 31.2104H211.172C210.843 31.2104 210.554 30.9212 210.554 30.5722V17.1102C210.554 14.1485 209.028 12.6228 206.016 12.6228C205.109 12.6228 204.201 12.7923 203.334 13.1314C202.097 13.6001 201.689 14.1884 201.689 15.4648V30.5722C201.689 30.9112 201.439 31.2104 201.07 31.2104H198.478C198.149 31.2104 197.859 30.9212 197.859 30.5722V10.6284C197.859 10.2894 198.149 9.99024 198.478 9.99024H200.622C201.08 9.99024 201.28 10.1997 201.28 10.7082V11.0473H201.399L201.409 11.0572Z" fill="white" stroke="white" stroke-width="0.2"/>
<path d="M244.288 10.7979C244.498 10.1597 244.747 9.9902 245.315 9.9902H247.05C247.629 9.9902 247.918 10.1198 247.918 10.4589C247.918 10.6284 247.878 10.7481 247.758 11.0472L240.958 30.1832L240.09 32.6762C239.302 34.8301 238.395 36.9541 237.697 38.2605C236.909 39.6964 236.002 40.2947 234.526 40.2947H234.157C233.419 40.2947 233.21 40.1252 233.21 39.487V37.9214C233.21 37.3331 233.419 36.994 233.828 36.994H234.197C234.616 36.994 234.855 36.8245 235.104 36.3558C235.523 35.6777 235.972 34.7005 236.381 33.5138L237.328 30.9311L229.45 11.2068C229.291 10.8278 229.241 10.6982 229.241 10.5287C229.241 10.1497 229.53 9.98022 230.068 9.98022H232.332C232.99 9.98022 233.319 10.1896 233.529 10.7381L239.382 26.2743L244.288 10.778V10.7979Z" fill="white" stroke="white" stroke-width="0.2"/>
</g>
<defs>
<clipPath id="clip0_897_1634">
<rect width="250" height="40" fill="white" transform="translate(0 0.894531)"/>
</clipPath>
</defs>
</svg>
