<svg width="22" height="21" viewBox="0 0 22 21" fill="none" xmlns="http://www.w3.org/2000/svg">
<path fill-rule="evenodd" clip-rule="evenodd" d="M21.5676 20.1355H17.4865V14.096C17.4865 12.656 17.4594 10.8039 15.3652 10.8039C13.2416 10.8039 12.9178 12.3732 12.9178 13.9936V20.1355H8.84033V7.71669H12.7528V9.41514H12.8094C13.3536 8.43845 14.6857 7.4082 16.6715 7.4082C20.8043 7.4082 21.5676 9.97973 21.5676 13.3242V20.1355Z" fill="#DBDBDB"/>
<path fill-rule="evenodd" clip-rule="evenodd" d="M3.38428 5.59029C1.87346 5.59029 0.654877 4.36777 0.654877 2.86301C0.654877 1.35826 1.87346 0.135742 3.38428 0.135742C4.888 0.135742 6.10942 1.35826 6.10942 2.86301C6.10942 4.36777 4.888 5.59029 3.38428 5.59029Z" fill="#DBDBDB"/>
<path fill-rule="evenodd" clip-rule="evenodd" d="M5.20326 20.1355H1.56689V7.4082H5.20326V20.1355Z" fill="#DBDBDB"/>
</svg>
