<svg width="20" height="20" viewBox="0 0 20 20" fill="none" xmlns="http://www.w3.org/2000/svg">
<path d="M16.7351 2.51487L16.7525 3.01457L16.7351 2.51487ZM13.7501 2.90628L13.6067 2.42729V2.42729L13.7501 2.90628ZM11.3949 4.00238L11.1445 3.56962V3.56962L11.3949 4.00238ZM3.31875 2.56249L3.28808 3.06155L3.31875 2.56249ZM5.83341 2.90628L5.96099 2.42283V2.42283L5.83341 2.90628ZM8.56862 4.06296L8.3349 4.50497L8.56862 4.06296ZM11.3564 16.7245L11.5916 17.1657L11.3564 16.7245ZM14.1667 15.5279L14.0392 15.0444L14.1667 15.5279ZM16.6544 15.1858L16.6856 15.6848L16.6544 15.1858ZM8.64376 16.7245L8.40856 17.1657L8.64376 16.7245ZM5.83341 15.5279L5.96099 15.0444L5.83341 15.5279ZM3.3458 15.1858L3.31459 15.6848H3.31459L3.3458 15.1858ZM18.8334 8.78207C18.8334 8.50593 18.6096 8.28207 18.3334 8.28207C18.0573 8.28207 17.8334 8.50593 17.8334 8.78207H18.8334ZM17.8334 5.83341C17.8334 6.10956 18.0573 6.33341 18.3334 6.33341C18.6096 6.33341 18.8334 6.10956 18.8334 5.83341H17.8334ZM1.16675 8.80899C1.16675 9.08513 1.39061 9.30899 1.66675 9.30899C1.94289 9.30899 2.16675 9.08513 2.16675 8.80899H1.16675ZM2.16675 11.6667C2.16675 11.3906 1.94289 11.1667 1.66675 11.1667C1.39061 11.1667 1.16675 11.3906 1.16675 11.6667H2.16675ZM16.7177 2.01517C15.7707 2.04816 14.5443 2.1466 13.6067 2.42729L13.8935 3.38528C14.7007 3.14361 15.8185 3.0471 16.7525 3.01457L16.7177 2.01517ZM13.6067 2.42729C12.792 2.67117 11.8697 3.1499 11.1445 3.56962L11.6454 4.43513C12.3559 4.0239 13.1954 3.59427 13.8935 3.38528L13.6067 2.42729ZM3.28808 3.06155C4.0948 3.11113 5.01662 3.20786 5.70584 3.38974L5.96099 2.42283C5.17269 2.21482 4.16999 2.11386 3.34942 2.06343L3.28808 3.06155ZM5.70584 3.38974C6.52212 3.60514 7.51934 4.07372 8.3349 4.50497L8.80235 3.62095C7.97434 3.18312 6.89339 2.66888 5.96099 2.42283L5.70584 3.38974ZM11.5916 17.1657C12.4189 16.7247 13.4524 16.2335 14.2943 16.0113L14.0392 15.0444C13.0787 15.2979 11.9597 15.8362 11.1212 16.2832L11.5916 17.1657ZM14.2943 16.0113C14.9758 15.8315 15.8848 15.7349 16.6856 15.6848L16.6232 14.6867C15.8082 14.7377 14.8189 14.8387 14.0392 15.0444L14.2943 16.0113ZM8.87896 16.2832C8.04041 15.8362 6.92146 15.2979 5.96099 15.0444L5.70584 16.0113C6.54779 16.2335 7.58131 16.7247 8.40856 17.1657L8.87896 16.2832ZM5.96099 15.0444C5.18125 14.8387 4.19197 14.7377 3.37701 14.6867L3.31459 15.6848C4.11533 15.7349 5.0244 15.8315 5.70584 16.0113L5.96099 15.0444ZM17.8334 13.4531C17.8334 14.0954 17.3035 14.6442 16.6232 14.6867L16.6856 15.6848C17.8532 15.6118 18.8334 14.6624 18.8334 13.4531H17.8334ZM18.8334 4.11108C18.8334 2.9568 17.9155 1.97345 16.7177 2.01517L16.7525 3.01457C17.3409 2.99407 17.8334 3.47794 17.8334 4.11108H18.8334ZM1.16675 13.4531C1.16675 14.6624 2.14694 15.6118 3.31459 15.6848L3.37701 14.6867C2.69663 14.6442 2.16675 14.0954 2.16675 13.4531H1.16675ZM11.1212 16.2832C10.4242 16.6548 9.57594 16.6548 8.87896 16.2832L8.40856 17.1657C9.39956 17.6939 10.6006 17.6939 11.5916 17.1657L11.1212 16.2832ZM11.1445 3.56962C10.4261 3.98542 9.53165 4.00659 8.80235 3.62095L8.3349 4.50497C9.37314 5.05397 10.6333 5.02086 11.6454 4.43513L11.1445 3.56962ZM2.16675 4.16492C2.16675 3.5171 2.68275 3.02434 3.28808 3.06155L3.34942 2.06343C2.12791 1.98836 1.16675 2.98245 1.16675 4.16492H2.16675ZM18.8334 13.4531V8.78207H17.8334V13.4531H18.8334ZM18.8334 5.83341V4.11108H17.8334V5.83341H18.8334ZM2.16675 8.80899V4.16492H1.16675V8.80899H2.16675ZM2.16675 13.4531V11.6667H1.16675V13.4531H2.16675Z" fill="#CA3031"/>
<path d="M10 4.58374V13.3337V17.0837" stroke="#CA3031" stroke-linecap="round"/>
</svg>
