<svg width="20" height="20" viewBox="0 0 20 20" fill="none" xmlns="http://www.w3.org/2000/svg">
<path d="M13.4475 3.94036C12.1595 2.65242 11.5156 2.00845 10.6801 1.76882C9.84455 1.5292 8.95716 1.73399 7.18237 2.14355L6.15889 2.37974C4.66575 2.72431 3.91918 2.8966 3.40795 3.40783C2.89672 3.91906 2.72443 4.66563 2.37986 6.15877L2.14368 7.18225C1.73411 8.95704 1.52933 9.84443 1.76895 10.6799C2.00857 11.5154 2.65254 12.1594 3.94049 13.4474L5.46518 14.9721C7.706 17.2129 8.82641 18.3333 10.2187 18.3333C11.6109 18.3333 12.7314 17.2129 14.9722 14.9721C17.213 12.7312 18.3334 11.6108 18.3334 10.2186C18.3334 9.09983 17.61 8.15662 16.1632 6.66663" stroke="#CA3031" stroke-linecap="round"/>
<path d="M7.17253 9.06576C8.093 9.06576 8.83919 8.31956 8.83919 7.39909C8.83919 6.47861 8.093 5.73242 7.17253 5.73242C6.25205 5.73242 5.50586 6.47861 5.50586 7.39909" stroke="#CA3031" stroke-linecap="round"/>
<path d="M9.61802 15.4165L10.4513 14.5832M15.4339 9.60044L12.4999 12.5345" stroke="#CA3031" stroke-linecap="round"/>
</svg>
