<svg width="40" height="40" viewBox="0 0 40 40" fill="none" xmlns="http://www.w3.org/2000/svg">
<path fill-rule="evenodd" clip-rule="evenodd" d="M33.73 29.439C33.2499 32.376 31.413 33.9517 28.2166 33.7304C21.1176 33.2398 6.76131 18.8823 6.27067 11.7845C5.99878 7.85183 8.45389 6.6149 10.5615 6.27051C11.1571 6.17238 11.7397 6.42927 12.0515 6.93116L15.4723 12.4414C15.7804 12.9377 15.7617 13.5727 15.4242 14.0596L13.7479 16.4741C13.601 16.686 13.5991 16.9653 13.7422 17.1797C16.0617 20.6293 19.3706 23.9381 22.8214 26.2582C23.0351 26.4014 23.3139 26.3995 23.5264 26.2526L25.9409 24.5769C26.4172 24.2463 27.0716 24.225 27.5591 24.5282L33.0693 27.9489C33.5687 28.2583 33.8281 28.8434 33.73 29.439ZM33.7285 26.887L28.2182 23.4656C27.3144 22.9043 26.1063 22.9406 25.2275 23.55L23.1668 24.98C20.0904 22.8437 17.1559 19.9098 15.0195 16.8334L16.4509 14.7721C17.0728 13.8752 17.1053 12.7014 16.534 11.782L13.1138 6.27235C12.5419 5.35044 11.4706 4.85667 10.3593 5.03668C8.63239 5.31919 4.65535 6.55112 5.02286 11.8707C5.56726 19.7486 20.2523 34.4329 28.1295 34.9773C31.984 35.2448 34.3866 33.1648 34.9635 29.6415C35.1435 28.5452 34.6585 27.4645 33.7285 26.887Z" fill="#E43D30"/>
<path d="M33.73 29.439L33.4833 29.3984L33.4832 29.3987L33.73 29.439ZM28.2166 33.7304L28.2339 33.481L28.2338 33.481L28.2166 33.7304ZM6.27067 11.7845L6.52007 11.7673L6.52007 11.7673L6.27067 11.7845ZM10.5615 6.27051L10.6018 6.51724L10.6021 6.51719L10.5615 6.27051ZM12.0515 6.93116L12.2639 6.79931L12.2639 6.79921L12.0515 6.93116ZM15.4723 12.4414L15.2599 12.5733L15.2599 12.5733L15.4723 12.4414ZM15.4242 14.0596L15.6295 14.2022L15.6296 14.202L15.4242 14.0596ZM13.7479 16.4741L13.5425 16.3315L13.5424 16.3316L13.7479 16.4741ZM13.7422 17.1797L13.5343 17.3185L13.5348 17.3192L13.7422 17.1797ZM22.8214 26.2582L22.6819 26.4657L22.6823 26.466L22.8214 26.2582ZM23.5264 26.2526L23.6686 26.4583L23.6689 26.458L23.5264 26.2526ZM25.9409 24.5769L26.0834 24.7823L26.0835 24.7823L25.9409 24.5769ZM27.5591 24.5282L27.4271 24.7405L27.4272 24.7406L27.5591 24.5282ZM33.0693 27.9489L32.9375 28.1613L32.9377 28.1615L33.0693 27.9489ZM33.7285 26.887L33.8604 26.6746L33.8603 26.6746L33.7285 26.887ZM28.2182 23.4656L28.0863 23.678L28.0864 23.678L28.2182 23.4656ZM25.2275 23.55L25.085 23.3445L25.0849 23.3446L25.2275 23.55ZM23.1668 24.98L23.0242 25.1854L23.1667 25.2844L23.3093 25.1854L23.1668 24.98ZM15.0195 16.8334L14.8142 16.6908L14.7152 16.8334L14.8142 16.976L15.0195 16.8334ZM16.4509 14.7721L16.6562 14.9147L16.6563 14.9145L16.4509 14.7721ZM16.534 11.782L16.3216 11.9138L16.3216 11.9139L16.534 11.782ZM13.1138 6.27235L12.9014 6.40414L12.9014 6.40421L13.1138 6.27235ZM10.3593 5.03668L10.3194 4.78989L10.319 4.78996L10.3593 5.03668ZM5.02286 11.8707L4.77346 11.888L4.77346 11.888L5.02286 11.8707ZM28.1295 34.9773L28.1468 34.7279L28.1467 34.7279L28.1295 34.9773ZM34.9635 29.6415L34.7168 29.601L34.7168 29.6011L34.9635 29.6415ZM33.4832 29.3987C33.2501 30.8249 32.6932 31.8894 31.836 32.5737C30.9791 33.2577 29.7884 33.5886 28.2339 33.481L28.1993 33.9798C29.8412 34.0935 31.1672 33.7473 32.1479 32.9645C33.1282 32.182 33.7298 30.9901 33.9767 29.4793L33.4832 29.3987ZM28.2338 33.481C26.524 33.3629 24.3397 32.4023 21.9977 30.8828C19.6634 29.3683 17.2015 27.3176 14.9423 25.0584C12.6831 22.7991 10.6326 20.3371 9.11813 18.0029C7.59871 15.6609 6.63824 13.4767 6.52007 11.7673L6.02126 11.8017C6.14841 13.6412 7.16646 15.9133 8.69868 18.275C10.2359 20.6444 12.3101 23.1333 14.5887 25.4119C16.8673 27.6906 19.3561 29.7649 21.7256 31.3022C24.0873 32.8346 26.3596 33.8527 28.1994 33.9798L28.2338 33.481ZM6.52007 11.7673C6.38816 9.85929 6.91744 8.64236 7.70061 7.85861C8.4922 7.06644 9.57469 6.68507 10.6018 6.51724L10.5212 6.02378C9.44067 6.20034 8.24182 6.60963 7.34693 7.50519C6.44361 8.40917 5.88128 9.77704 6.02126 11.8017L6.52007 11.7673ZM10.6021 6.51719C11.1016 6.4349 11.5826 6.65014 11.8392 7.06312L12.2639 6.79921C11.8967 6.2084 11.2127 5.90986 10.5208 6.02384L10.6021 6.51719ZM11.8391 7.06302L15.2599 12.5733L15.6847 12.3095L12.2639 6.79931L11.8391 7.06302ZM15.2599 12.5733C15.5146 12.9834 15.5005 13.5107 15.2187 13.9172L15.6296 14.202C16.0229 13.6347 16.0463 12.8919 15.6847 12.3095L15.2599 12.5733ZM15.2188 13.917L13.5425 16.3315L13.9532 16.6167L15.6295 14.2022L15.2188 13.917ZM13.5424 16.3316C13.3368 16.6283 13.3344 17.0192 13.5343 17.3185L13.9502 17.0409C13.8638 16.9115 13.8652 16.7437 13.9533 16.6165L13.5424 16.3316ZM13.5348 17.3192C15.8723 20.7956 19.2043 24.1276 22.6819 26.4657L22.9609 26.0508C19.5369 23.7487 16.2511 20.4629 13.9497 17.0402L13.5348 17.3192ZM22.6823 26.466C22.9814 26.6663 23.3717 26.6635 23.6686 26.4583L23.3843 26.047C23.2561 26.1355 23.0889 26.1365 22.9605 26.0505L22.6823 26.466ZM23.6689 26.458L26.0834 24.7823L25.7983 24.3715L23.3839 26.0472L23.6689 26.458ZM26.0835 24.7823C26.4796 24.5073 27.0261 24.4912 27.4271 24.7405L27.6911 24.3159C27.117 23.9589 26.3547 23.9853 25.7983 24.3716L26.0835 24.7823ZM27.4272 24.7406L32.9375 28.1613L33.2012 27.7365L27.6909 24.3158L27.4272 24.7406ZM32.9377 28.1615C33.3479 28.4156 33.5656 28.899 33.4833 29.3984L33.9766 29.4796C34.0906 28.7877 33.7895 28.101 33.201 27.7364L32.9377 28.1615ZM33.8603 26.6746L28.3501 23.2532L28.0864 23.678L33.5966 27.0994L33.8603 26.6746ZM28.3501 23.2532C27.3605 22.6386 26.0446 22.6791 25.085 23.3445L25.3699 23.7554C26.168 23.202 27.2684 23.17 28.0863 23.678L28.3501 23.2532ZM25.0849 23.3446L23.0242 24.7746L23.3093 25.1854L25.37 23.7554L25.0849 23.3446ZM23.3094 24.7747C20.2575 22.6553 17.3442 19.7427 15.2249 16.6908L14.8142 16.976C16.9676 20.0769 19.9233 23.032 23.0242 25.1854L23.3094 24.7747ZM15.2249 16.976L16.6562 14.9147L16.2455 14.6295L14.8142 16.6908L15.2249 16.976ZM16.6563 14.9145C17.3344 13.9366 17.3708 12.655 16.7463 11.65L16.3216 11.9139C16.8398 12.7478 16.8111 13.8138 16.2454 14.6296L16.6563 14.9145ZM16.7464 11.6501L13.3262 6.1405L12.9014 6.40421L16.3216 11.9138L16.7464 11.6501ZM13.3263 6.14057C12.7006 5.13188 11.5291 4.59393 10.3194 4.78989L10.3993 5.28346C11.4121 5.1194 12.3833 5.569 12.9014 6.40414L13.3263 6.14057ZM10.319 4.78996C9.4348 4.9346 7.95632 5.32416 6.74201 6.37581C5.51493 7.43853 4.58461 9.15449 4.77346 11.888L5.27227 11.8535C5.0936 9.26734 5.96805 7.70754 7.06935 6.75377C8.18342 5.78892 9.55694 5.42126 10.3997 5.2834L10.319 4.78996ZM4.77346 11.888C4.91383 13.9191 5.95977 16.3563 7.54391 18.8616C9.13195 21.3731 11.2772 23.9785 13.6496 26.3508C16.022 28.7232 18.6274 30.8684 21.1388 32.4564C23.6441 34.0405 26.0812 35.0864 28.1122 35.2267L28.1467 34.7279C26.2391 34.5961 23.8867 33.6023 21.406 32.0338C18.9316 30.4692 16.3547 28.3488 14.0031 25.9973C11.6516 23.6458 9.53118 21.0689 7.96651 18.5944C6.39794 16.1137 5.4041 13.7612 5.27227 11.8535L4.77346 11.888ZM28.1122 35.2267C30.0885 35.3639 31.7188 34.9001 32.9321 33.9259C34.1448 32.9523 34.9141 31.4905 35.2102 29.6819L34.7168 29.6011C34.436 31.3158 33.7156 32.6556 32.6191 33.536C31.5233 34.4158 30.025 34.8583 28.1468 34.7279L28.1122 35.2267ZM35.2102 29.682C35.4063 28.4878 34.8778 27.3064 33.8604 26.6746L33.5966 27.0994C34.4392 27.6226 34.8808 28.6026 34.7168 29.601L35.2102 29.682Z" fill="#E43D30"/>
</svg>
