<svg width="223" height="157" viewBox="0 0 223 157" fill="none" xmlns="http://www.w3.org/2000/svg">
<path d="M152.71 62.1581L131.983 33.6316C138.285 29.0586 144.925 26.9016 152.71 26.9016V62.1581Z" fill="#DBD7D7"/>
<path d="M152.71 62.1581L146.926 27.3291C148.792 27.0441 150.709 26.9016 152.704 26.9016V62.1581H152.71Z" fill="#E43D30"/>
<path d="M152.71 62.1581V26.9016C172.188 26.9016 187.98 42.6805 187.98 62.1581C187.98 81.6356 172.188 97.4275 152.71 97.4275C133.233 97.4275 117.441 81.6356 117.441 62.1581C117.441 50.4793 122.526 40.5041 131.983 33.6316L152.71 62.1581Z" fill="#EFEDED"/>
<path d="M152.704 62.158L186.244 73.0594C192.255 54.5406 182.124 34.6355 163.605 28.618C159.9 27.4197 156.609 26.895 152.704 26.895V62.158Z" fill="#B92E23"/>
<path d="M83.4539 146.073H52.4531V147.659H83.4539V146.073Z" fill="#E2E0E0"/>
<path d="M83.4539 150.743H52.4531V152.33H83.4539V150.743Z" fill="#E2E0E0"/>
<path d="M74.6965 155.413H52.4531V157H74.6965V155.413Z" fill="#E2E0E0"/>
<path d="M50.6395 145.354H47.0122V148.372H50.6395V145.354Z" fill="#B92E23"/>
<path d="M124.786 146.073H93.7854V147.659H124.786V146.073Z" fill="#E2E0E0"/>
<path d="M124.786 150.743H93.7854V152.33H124.786V150.743Z" fill="#E2E0E0"/>
<path d="M116.029 155.413H93.7854V157H116.029V155.413Z" fill="#E2E0E0"/>
<path d="M91.9718 145.354H88.3445V148.372H91.9718V145.354Z" fill="#E43D30"/>
<path d="M166.118 146.073H135.118V147.659H166.118V146.073Z" fill="#E2E0E0"/>
<path d="M166.118 150.743H135.118V152.33H166.118V150.743Z" fill="#E2E0E0"/>
<path d="M157.361 155.413H135.118V157H157.361V155.413Z" fill="#E2E0E0"/>
<path d="M133.304 145.354H129.677V148.372H133.304V145.354Z" fill="#EFEDED"/>
<path d="M193.22 139.271H22.3074V139.693H193.22V139.271Z" fill="#E2E0E0"/>
<path d="M193.22 114.437H22.3074V114.852H193.22V114.437Z" fill="#E2E0E0"/>
<path d="M193.22 89.6028H22.3074V90.0238H193.22V89.6028Z" fill="#E2E0E0"/>
<path d="M193.188 96.8769L172.175 85.5156L150.171 94.2018L128.977 79.3102L112.518 93.4957L93.8179 94.694L81.5497 75.4238L67.2735 68.8363L52.4144 81.3959L37.9892 80.8259L22.6572 94.4479L21.5107 93.1524L37.3609 79.0641L51.8185 79.6406L66.9885 66.7959L82.7416 74.0635L94.7312 92.9063L111.832 91.8051L128.867 77.1144L150.411 92.2456L172.292 83.6112L194.017 95.3547L193.188 96.8769Z" fill="#EFEDED"/>
<path d="M17.6502 138.617H9.60522V140.347H17.6502V138.617Z" fill="#E2E0E0"/>
<path d="M17.6502 113.776H9.60522V115.506H17.6502V113.776Z" fill="#E2E0E0"/>
<path d="M17.6502 88.9421H9.60522V90.6781H17.6502V88.9421Z" fill="#E2E0E0"/>
<path d="M132.514 129.918L114.759 128.117L97.5943 121.815L78.8941 122.404L67.8631 110.79L48.5928 108.037L39.9973 126.938L22.1974 129.315L21.9707 127.599L38.8184 125.351L47.5499 106.139L68.7051 109.158L79.6195 120.649L97.8793 120.072L115.265 126.446L132.268 128.149L143.396 123.693L156.04 106.826L167.939 121.704L174.118 120.163L191.853 103.561L193.039 104.831L174.973 121.737L167.291 123.654L156.085 109.657L144.484 125.125L132.514 129.918Z" fill="#B92E23"/>
<path d="M54.4548 122.67L39.2588 110.395L21.8347 117.702L21.1675 116.102L39.5439 108.4L54.3836 120.383L80.2219 96.838L99.2136 104.546L118.775 117.384L126.671 102.35L135.772 95.5231L147.075 77.0754L160.729 83.9674L171.961 95.7498L183.323 93.5928L192.372 82.8468L193.693 83.9674L184.249 95.1733L171.352 97.6347L159.583 85.2693L147.723 79.3425L136.944 96.8056L127.863 103.62L119.43 119.891L98.4104 106.075L80.5911 98.8524L54.4548 122.67Z" fill="#E43D30"/>
<path d="M42.0051 109.255C42.0051 110.609 40.9104 111.71 39.5501 111.71C38.1899 111.71 37.0952 110.609 37.0952 109.255C37.0952 107.901 38.1964 106.8 39.5501 106.8C40.9039 106.8 42.0051 107.901 42.0051 109.255Z" fill="#E43D30"/>
<path d="M56.7283 121.238C56.7283 122.592 55.6337 123.693 54.2799 123.693C52.9261 123.693 51.825 122.592 51.825 121.238C51.825 119.885 52.9196 118.783 54.2799 118.783C55.6401 118.783 56.7283 119.885 56.7283 121.238Z" fill="#E43D30"/>
<path d="M83.0071 97.9911C83.0071 99.3448 81.906 100.446 80.5587 100.446C79.2114 100.446 78.1038 99.3448 78.1038 97.9911C78.1038 96.6373 79.2049 95.5361 80.5587 95.5361C81.9125 95.5361 83.0071 96.6373 83.0071 97.9911Z" fill="#E43D30"/>
<path d="M101.494 105.064C101.494 106.418 100.392 107.519 99.0387 107.519C97.6849 107.519 96.5837 106.418 96.5837 105.064C96.5837 103.711 97.6849 102.609 99.0387 102.609C100.392 102.609 101.494 103.711 101.494 105.064Z" fill="#E43D30"/>
<path d="M121.418 118.492C121.418 119.846 120.323 120.947 118.963 120.947C117.603 120.947 116.502 119.852 116.502 118.492C116.502 117.132 117.603 116.037 118.963 116.037C120.323 116.037 121.418 117.138 121.418 118.492Z" fill="#E43D30"/>
<path d="M129.495 103.043C129.495 104.397 128.401 105.498 127.04 105.498C125.68 105.498 124.585 104.397 124.585 103.043C124.585 101.69 125.693 100.588 127.04 100.588C128.388 100.588 129.495 101.69 129.495 103.043Z" fill="#E43D30"/>
<path d="M139.166 95.9698C139.166 97.3236 138.078 98.4248 136.718 98.4248C135.357 98.4248 134.263 97.3236 134.263 95.9698C134.263 94.6161 135.364 93.5149 136.718 93.5149C138.071 93.5149 139.166 94.6096 139.166 95.9698Z" fill="#E43D30"/>
<path d="M149.569 78.5003C149.569 79.8606 148.474 80.9553 147.114 80.9553C145.754 80.9553 144.659 79.8606 144.659 78.5003C144.659 77.1401 145.76 76.0454 147.114 76.0454C148.468 76.0454 149.569 77.1466 149.569 78.5003Z" fill="#E43D30"/>
<path d="M163.145 84.5631C163.145 85.9233 162.044 87.018 160.684 87.018C159.324 87.018 158.236 85.9233 158.236 84.5631C158.236 83.2028 159.33 82.1082 160.684 82.1082C162.038 82.1082 163.145 83.2093 163.145 84.5631Z" fill="#E43D30"/>
<path d="M174.105 96.6954C174.105 98.0557 173.01 99.1503 171.65 99.1503C170.29 99.1503 169.195 98.0557 169.195 96.6954C169.195 95.3352 170.296 94.2405 171.65 94.2405C173.004 94.2405 174.105 95.3416 174.105 96.6954Z" fill="#E43D30"/>
<path d="M185.667 93.9491C185.667 95.3029 184.573 96.404 183.212 96.404C181.852 96.404 180.758 95.3093 180.758 93.9491C180.758 92.5888 181.859 91.4941 183.212 91.4941C184.566 91.4941 185.667 92.5953 185.667 93.9491Z" fill="#E43D30"/>
</svg>
