<svg width="25" height="25" viewBox="0 0 25 25" fill="none" xmlns="http://www.w3.org/2000/svg">
<g clip-path="url(#clip0_1129_658)">
<path d="M5.22825 0C4.41777 0 3.64003 0.322522 3.06696 0.896501C2.49389 1.47048 2.17188 2.249 2.17188 3.06122C2.17188 3.87345 2.49389 4.65151 3.06696 5.22595C3.64003 5.80038 4.41731 6.12245 5.22825 6.12245C6.0392 6.12245 6.81603 5.79993 7.38955 5.22595C7.96262 4.65197 8.28463 3.87345 8.28463 3.06122C8.28463 2.249 7.96262 1.47094 7.38955 0.896501C6.81603 0.322522 6.03874 0 5.22825 0ZM5.22825 4.84694C4.75524 4.84694 4.30179 4.6588 3.9675 4.32398C3.63321 3.98916 3.44537 3.53499 3.44537 3.06122C3.44537 2.58746 3.63321 2.13329 3.9675 1.79847C4.30179 1.46365 4.75524 1.27551 5.22825 1.27551C5.70127 1.27551 6.15472 1.46365 6.48901 1.79847C6.8233 2.13329 7.01114 2.58746 7.01114 3.06122C7.01114 3.53499 6.8233 3.98916 6.48901 4.32398C6.15472 4.6588 5.70127 4.84694 5.22825 4.84694Z" fill="white"/>
<path d="M1.88878 16.2705L2.90757 23.689C2.9485 24.0484 3.11997 24.3805 3.38877 24.6219C3.65756 24.8633 4.00595 24.9982 4.36708 25H6.04809C6.41149 25 6.76215 24.8652 7.03277 24.6224C7.30339 24.3795 7.47531 24.0452 7.51533 23.6835L8.00972 19.1326L9.00304 11.5306L10.1287 12.4617C10.4421 12.7187 10.8337 12.8612 11.2385 12.8662C11.6437 12.8708 12.038 12.7373 12.3573 12.4872L15.7016 9.85741C16.0518 9.5891 16.2911 9.20098 16.3738 8.7673C16.4571 8.33363 16.3784 7.88447 16.1523 7.50546C15.8858 7.07361 15.4492 6.77614 14.9502 6.6864C14.4518 6.59666 13.9383 6.72375 13.5389 7.0358L11.2799 8.82151L9.00032 6.93649C8.68285 6.6741 8.28398 6.52969 7.87191 6.52833H6.83811C6.60797 6.52423 6.38875 6.62672 6.24457 6.80666L5.21077 8.09994L4.19198 6.81167C4.04734 6.6249 3.82175 6.51876 3.5857 6.52605H2.79887C1.9993 6.52696 1.23793 6.87044 0.707157 7.46947C0.175475 8.06759 -0.0746756 8.86524 0.0194718 9.66062L0.643483 14.39C0.730353 15.1818 1.19472 15.8819 1.88878 16.27V16.2705ZM1.65955 8.31131C1.94881 7.98423 2.36452 7.79791 2.80069 7.8011H3.33055L4.49716 9.25792C4.66772 9.47202 4.92651 9.59729 5.20031 9.59729C5.47411 9.59729 5.7329 9.47248 5.90346 9.25792L7.07007 7.79883H7.86964C7.98607 7.79837 8.09887 7.83891 8.18801 7.91362L10.8701 10.128C11.1034 10.3166 11.4363 10.3166 11.6696 10.128L14.3312 8.03616C14.4195 7.96783 14.5277 7.93002 14.6392 7.92911C14.8174 7.93275 14.9807 8.02978 15.0694 8.18421C15.194 8.41836 15.1281 8.70899 14.9143 8.86524L11.5673 11.4955C11.3827 11.6408 11.123 11.6408 10.9383 11.4955L8.93391 9.82461C8.75517 9.67701 8.51093 9.63784 8.29535 9.72302C8.07976 9.80775 7.9274 10.0032 7.89693 10.2328L6.74578 18.9928L6.24912 23.5441C6.23775 23.6466 6.15133 23.7245 6.04809 23.7249H4.36708C4.25929 23.7227 4.17105 23.6388 4.16332 23.5313L3.1036 15.7557C3.0713 15.523 2.91348 15.3271 2.69335 15.2455C2.48095 15.1681 2.29493 15.0319 2.15621 14.8533C2.01749 14.6747 1.93198 14.4606 1.90924 14.2351L1.29296 9.503C1.23839 9.0716 1.37165 8.63747 1.65955 8.31176V8.31131Z" fill="white"/>
<path d="M24.3639 0.175842H9.69827C9.34669 0.175842 9.06152 0.461466 9.06152 0.813597C9.06152 1.16573 9.34669 1.45135 9.69827 1.45135H23.7067V3.16555H10.2077C9.85609 3.16555 9.57092 3.45117 9.57092 3.8033C9.57092 4.15543 9.85609 4.44106 10.2077 4.44106H21.4549V15.7366H10.4619C10.1103 15.7366 9.82516 16.0222 9.82516 16.3744C9.82516 16.7265 10.1103 17.0121 10.4619 17.0121H14.629V19.1167C14.0009 19.3208 13.5083 19.8137 13.3036 20.4432C13.0994 21.0723 13.2081 21.7611 13.5965 22.2964C13.9845 22.8316 14.6053 23.1482 15.2657 23.1482C15.9261 23.1482 16.5465 22.8316 16.9349 22.2964C17.3233 21.7611 17.432 21.0719 17.2278 20.4432C17.0236 19.8141 16.531 19.3208 15.9024 19.1167V17.0121H23.8595C24.2111 17.0121 24.4962 16.7265 24.4962 16.3744C24.4962 16.0222 24.2111 15.7366 23.8595 15.7366H22.7284V4.44151H24.3634C24.5322 4.44151 24.6941 4.37409 24.8137 4.25474C24.9333 4.13539 25.0002 3.97276 25.0002 3.80376V0.813597C25.0002 0.644592 24.9329 0.48242 24.8137 0.362613C24.6945 0.242807 24.5326 0.175842 24.3634 0.175842H24.3639ZM15.2662 21.8723C15.0565 21.8723 14.8559 21.7889 14.7076 21.6409C14.5598 21.4924 14.4766 21.2915 14.4766 21.0815C14.4766 20.8715 14.5598 20.6706 14.7076 20.5225C14.8559 20.374 15.0565 20.2906 15.2662 20.2906C15.4758 20.2906 15.6764 20.374 15.8242 20.5225C15.9725 20.6706 16.0557 20.8719 16.0557 21.0815C16.0557 21.291 15.9725 21.4924 15.8242 21.6409C15.6764 21.7889 15.4754 21.8723 15.2662 21.8723Z" fill="white"/>
</g>
<defs>
<clipPath id="clip0_1129_658">
<rect width="25" height="25" fill="white"/>
</clipPath>
</defs>
</svg>
