<svg width="25" height="20" viewBox="0 0 25 20" fill="none" xmlns="http://www.w3.org/2000/svg">
<path d="M24.6579 2.79534C23.7519 3.18667 22.7937 3.44673 21.8129 3.5675C22.8466 2.96009 23.6194 1.99828 23.9851 0.864242C23.017 1.43241 21.9579 1.83237 20.8536 2.04683C20.1765 1.33069 19.2977 0.832794 18.3312 0.617845C17.3647 0.402895 16.3554 0.480826 15.4342 0.841511C14.513 1.2022 13.7227 1.82896 13.1658 2.64037C12.609 3.45178 12.3113 4.41033 12.3116 5.39147C12.3079 5.76554 12.3463 6.13885 12.4261 6.5045C10.4616 6.40975 8.53946 5.90536 6.78529 5.02429C5.03112 4.14322 3.48445 2.90532 2.2464 1.39154C1.61036 2.46777 1.41324 3.74397 1.69531 4.95934C1.97739 6.17471 2.71738 7.23751 3.76405 7.93056C2.98232 7.90986 2.21708 7.70324 1.53288 7.32814V7.3817C1.53458 8.51088 1.92883 9.60503 2.64931 10.4801C3.36979 11.3552 4.37254 11.9577 5.48888 12.1865C5.06656 12.2969 4.63131 12.3511 4.19456 12.3479C3.88085 12.3534 3.56746 12.3254 3.25981 12.2644C3.57887 13.2353 4.19386 14.0844 5.02015 14.6948C5.84644 15.3052 6.8434 15.647 7.87385 15.673C6.12602 17.0273 3.97032 17.7621 1.75129 17.76C1.35619 17.7616 0.961402 17.7381 0.569336 17.6897C2.82731 19.1306 5.45827 19.8929 8.14424 19.8844C17.2312 19.8844 22.1985 12.4286 22.1985 5.96607C22.1985 5.74973 22.1907 5.54104 22.1802 5.33374C23.1551 4.64388 23.9947 3.78367 24.6579 2.79534Z" fill="#DBDBDB"/>
</svg>
