<svg width="212" height="157" viewBox="0 0 212 157" fill="none" xmlns="http://www.w3.org/2000/svg">
<g clip-path="url(#clip0_609_16219)">
<path d="M132.289 128.022C132.199 125.646 132.082 122.467 131.985 120.092C132.047 121.726 132.22 126.145 132.289 127.835C132.289 127.897 132.289 127.96 132.289 128.015V128.022Z" fill="#E5E3E3"/>
<path d="M197.823 116.753C197.933 119.683 198.044 122.606 198.155 125.536C198.238 127.773 195.309 130.134 189.241 132.164C176.131 136.555 153.372 137.753 138.398 134.844C130.357 133.279 126.201 130.848 126.098 128.257L125.765 119.475C125.869 122.073 130.025 124.504 138.066 126.062C153.033 128.971 175.798 127.773 188.902 123.388C194.969 121.359 197.906 118.997 197.816 116.76L197.823 116.753Z" fill="#F3F3F3"/>
<path d="M185.522 110.167C200.489 113.075 202.006 118.997 188.902 123.388C175.798 127.779 153.033 128.977 138.066 126.062C123.092 123.153 121.575 117.238 134.686 112.847C147.79 108.456 170.548 107.258 185.522 110.167ZM142.138 124.697C154.542 127.107 173.395 126.11 184.248 122.474C195.101 118.838 193.847 113.934 181.443 111.524C169.045 109.114 150.193 110.111 139.333 113.747C128.48 117.383 129.734 122.287 142.131 124.697" fill="#E5E3E3"/>
<path d="M181.45 111.531C193.854 113.941 195.108 118.845 184.255 122.481C173.402 126.117 154.549 127.107 142.145 124.704C129.747 122.294 128.487 117.39 139.347 113.754C150.2 110.118 169.059 109.128 181.457 111.531H181.45Z" fill="#F3F3F3"/>
<path d="M139.34 114.842C150.193 111.206 169.052 110.208 181.45 112.625C187.621 113.824 191.035 115.645 191.562 117.612C192.178 115.23 188.75 112.951 181.45 111.531C169.052 109.121 150.2 110.118 139.34 113.754C133.882 115.583 131.493 117.73 132.033 119.718C132.463 118.055 134.873 116.345 139.34 114.849V114.842Z" fill="#E9E9E9"/>
<path d="M129.214 123.298V131.9C131.271 133.043 134.339 134.054 138.398 134.844C142.408 135.626 146.993 136.104 151.786 136.312V127.544C146.868 127.35 142.173 126.858 138.066 126.055C134.215 125.307 131.264 124.358 129.207 123.291L129.214 123.298Z" fill="#E9E9E9"/>
<path d="M176.359 114.267L173.069 115.368C174.378 115.728 175.002 116.172 174.925 116.677C174.849 117.19 174.08 117.716 172.633 118.263L169.246 117.605C170.056 117.294 170.41 116.996 170.313 116.698C170.209 116.4 169.655 116.158 168.664 115.964C167.591 115.756 166.448 115.687 165.229 115.756C164.017 115.825 162.93 116.019 161.967 116.338C161.614 116.455 161.357 116.573 161.177 116.691C161.004 116.809 160.914 116.933 160.914 117.058C160.9 117.314 161.51 117.64 162.756 118.035C163.498 118.27 164.038 118.464 164.363 118.609C165.52 119.115 166.025 119.621 165.866 120.126C165.721 120.632 164.931 121.124 163.518 121.601C161.724 122.204 159.661 122.613 157.347 122.827C155.034 123.042 152.922 123.021 151.031 122.758L147.083 124.081L143.925 123.465L147.72 122.197C146.058 121.754 145.255 121.227 145.324 120.618C145.393 120.008 146.328 119.399 148.136 118.783L151.398 119.42C150.241 119.842 149.715 120.23 149.805 120.569C149.902 120.916 150.615 121.221 151.966 121.477C153.206 121.719 154.508 121.802 155.907 121.719C157.306 121.643 158.545 121.421 159.647 121.054C160.041 120.923 160.353 120.791 160.596 120.666C160.838 120.542 160.99 120.417 161.067 120.306C161.302 119.932 160.741 119.517 159.377 119.067C159.148 118.99 158.989 118.935 158.878 118.9C157.209 118.319 156.336 117.771 156.26 117.266C156.177 116.753 156.89 116.248 158.386 115.742C160.021 115.195 161.87 114.835 163.927 114.655C165.991 114.482 167.999 114.509 169.959 114.752L173.208 113.664L176.359 114.274V114.267Z" fill="#E9E9E9"/>
<path d="M176.359 113.034L173.069 114.135C174.378 114.495 175.002 114.932 174.925 115.444C174.849 115.957 174.08 116.483 172.633 117.023L169.246 116.365C170.056 116.054 170.41 115.756 170.313 115.458C170.209 115.16 169.655 114.918 168.664 114.724C167.591 114.516 166.448 114.447 165.229 114.516C164.017 114.585 162.93 114.779 161.967 115.098C161.614 115.216 161.357 115.333 161.177 115.451C161.004 115.569 160.914 115.694 160.914 115.818C160.9 116.075 161.51 116.4 162.756 116.795C163.498 117.037 164.038 117.224 164.363 117.37C165.52 117.875 166.025 118.381 165.866 118.886C165.721 119.392 164.931 119.891 163.518 120.369C161.724 120.971 159.661 121.38 157.347 121.595C155.034 121.809 152.922 121.782 151.031 121.525L147.083 122.848L143.925 122.239L147.72 120.964C146.058 120.521 145.255 119.995 145.324 119.385C145.393 118.776 146.328 118.166 148.136 117.55L151.398 118.18C150.241 118.602 149.715 118.99 149.805 119.33C149.902 119.676 150.615 119.981 151.966 120.244C153.206 120.486 154.508 120.563 155.907 120.486C157.306 120.41 158.545 120.189 159.647 119.815C160.041 119.683 160.353 119.558 160.596 119.434C160.838 119.309 160.99 119.184 161.067 119.073C161.302 118.699 160.741 118.291 159.377 117.827C159.148 117.751 158.989 117.695 158.878 117.661C157.209 117.079 156.336 116.532 156.26 116.026C156.177 115.514 156.89 115.008 158.386 114.502C160.021 113.955 161.87 113.595 163.927 113.422C165.991 113.242 167.999 113.276 169.959 113.512L173.208 112.425L176.359 113.034Z" fill="#E5E3E3"/>
<path d="M132.019 116.414C131.929 114.038 131.805 110.859 131.721 108.484C131.784 110.118 131.957 114.537 132.019 116.234C132.019 116.296 132.019 116.352 132.019 116.414Z" fill="#E5E3E3"/>
<path d="M197.553 105.146C197.663 108.068 197.774 110.998 197.885 113.921C197.968 116.158 195.038 118.52 188.971 120.549C175.867 124.94 153.102 126.138 138.135 123.229C130.094 121.664 125.938 119.233 125.834 116.643L125.502 107.861C125.599 110.458 129.761 112.882 137.802 114.447C152.776 117.356 175.535 116.158 188.646 111.767C194.706 109.737 197.643 107.376 197.553 105.139V105.146Z" fill="#F3F3F3"/>
<path d="M185.252 98.5589C200.226 101.468 201.743 107.389 188.639 111.774C175.528 116.165 152.769 117.363 137.795 114.454C122.822 111.545 121.312 105.623 134.416 101.239C147.519 96.8482 170.278 95.65 185.252 98.5589ZM141.875 113.089C154.272 115.5 173.125 114.502 183.985 110.873C194.844 107.237 193.591 102.334 181.186 99.9233C168.782 97.5131 149.93 98.5104 139.077 102.147C128.224 105.783 129.477 110.686 141.875 113.096" fill="#E5E3E3"/>
<path d="M181.187 99.9232C193.591 102.333 194.838 107.237 183.985 110.873C173.132 114.509 154.279 115.507 141.875 113.089C129.471 110.679 128.224 105.776 139.077 102.139C149.93 98.5034 168.782 97.513 181.187 99.9163V99.9232Z" fill="#F3F3F3"/>
<path d="M139.077 103.234C149.93 99.5977 168.782 98.6073 181.187 101.018C187.358 102.216 190.758 104.037 191.298 106.004C191.915 103.622 188.486 101.343 181.187 99.9232C168.782 97.513 149.93 98.5103 139.077 102.146C133.619 103.975 131.23 106.122 131.77 108.11C132.206 106.447 134.616 104.737 139.077 103.241V103.234Z" fill="#E9E9E9"/>
<path d="M128.944 111.69V120.292C131.001 121.435 134.076 122.446 138.135 123.236C142.152 124.019 146.73 124.497 151.53 124.704V115.936C146.612 115.742 141.916 115.25 137.802 114.454C133.952 113.706 131.001 112.757 128.944 111.69Z" fill="#E9E9E9"/>
<path d="M176.096 102.659L172.813 103.76C174.122 104.12 174.745 104.564 174.662 105.069C174.593 105.582 173.824 106.108 172.37 106.655L168.983 105.997C169.793 105.686 170.147 105.388 170.043 105.09C169.946 104.792 169.392 104.55 168.394 104.356C167.328 104.148 166.185 104.079 164.966 104.148C163.747 104.217 162.66 104.411 161.711 104.73C161.364 104.848 161.094 104.965 160.921 105.083C160.748 105.201 160.658 105.326 160.658 105.45C160.644 105.707 161.254 106.032 162.493 106.427C163.241 106.662 163.768 106.856 164.107 107.002C165.257 107.507 165.762 108.013 165.61 108.518C165.458 109.031 164.675 109.523 163.255 110.001C161.454 110.603 159.397 111.012 157.077 111.226C154.764 111.441 152.652 111.414 150.754 111.157L146.806 112.48L143.655 111.871L147.45 110.596C145.788 110.153 144.985 109.627 145.054 109.01C145.123 108.401 146.058 107.791 147.873 107.182L151.128 107.812C149.971 108.234 149.445 108.622 149.542 108.969C149.632 109.315 150.352 109.62 151.71 109.883C152.949 110.125 154.251 110.201 155.651 110.125C157.043 110.049 158.282 109.827 159.391 109.46C159.785 109.329 160.097 109.204 160.339 109.073C160.582 108.948 160.734 108.823 160.81 108.712C161.053 108.345 160.485 107.923 159.12 107.473C158.892 107.396 158.733 107.341 158.629 107.306C156.96 106.725 156.087 106.177 156.004 105.672C155.921 105.159 156.634 104.654 158.137 104.148C159.771 103.601 161.614 103.241 163.678 103.061C165.742 102.881 167.75 102.915 169.71 103.151L172.965 102.063L176.117 102.673L176.096 102.659Z" fill="#E9E9E9"/>
<path d="M176.096 101.426L172.813 102.527C174.122 102.888 174.745 103.331 174.662 103.836C174.593 104.349 173.824 104.868 172.37 105.416L168.983 104.758C169.793 104.446 170.147 104.148 170.043 103.85C169.946 103.552 169.392 103.31 168.394 103.116C167.328 102.908 166.185 102.839 164.966 102.908C163.747 102.978 162.66 103.172 161.711 103.49C161.364 103.608 161.094 103.726 160.921 103.843C160.748 103.961 160.658 104.086 160.658 104.21C160.644 104.467 161.254 104.792 162.493 105.187C163.241 105.422 163.768 105.616 164.107 105.762C165.257 106.267 165.762 106.773 165.61 107.286C165.458 107.791 164.675 108.283 163.255 108.761C161.454 109.363 159.397 109.772 157.077 109.987C154.764 110.201 152.652 110.174 150.754 109.917L146.806 111.24L143.655 110.631L147.45 109.356C145.788 108.913 144.985 108.387 145.054 107.777C145.123 107.168 146.058 106.558 147.873 105.942L151.128 106.579C149.971 107.002 149.445 107.389 149.542 107.729C149.632 108.075 150.352 108.38 151.71 108.636C152.949 108.879 154.251 108.962 155.651 108.879C157.043 108.802 158.282 108.581 159.391 108.207C159.785 108.075 160.097 107.95 160.339 107.819C160.582 107.687 160.734 107.57 160.81 107.459C161.053 107.085 160.485 106.676 159.12 106.219C158.892 106.143 158.733 106.087 158.629 106.053C156.96 105.471 156.087 104.924 156.004 104.418C155.921 103.906 156.634 103.4 158.137 102.895C159.771 102.347 161.614 101.987 163.678 101.807C165.742 101.627 167.75 101.662 169.71 101.897L172.965 100.81L176.117 101.426H176.096Z" fill="#E5E3E3"/>
<path d="M133.293 104.1C133.203 101.724 133.086 98.552 132.996 96.1694C133.051 97.804 133.231 102.223 133.3 103.913C133.293 103.975 133.293 104.037 133.3 104.093L133.293 104.1Z" fill="#E5E3E3"/>
<path d="M198.827 92.8313C198.938 95.761 199.048 98.6837 199.159 101.613C199.242 103.85 196.306 106.212 190.239 108.242C177.128 112.633 154.376 113.831 139.402 110.922C131.361 109.357 127.206 106.926 127.109 104.335L126.776 95.5601C126.873 98.1504 131.036 100.581 139.07 102.147C154.044 105.056 176.802 103.857 189.906 99.4664C195.98 97.4371 198.903 95.0753 198.827 92.8382V92.8313Z" fill="#F3F3F3"/>
<path d="M186.526 86.2445C201.493 89.1534 203.01 95.0751 189.906 99.4592C176.802 103.85 154.043 105.048 139.07 102.14C124.096 99.2306 122.586 93.309 135.69 88.9179C148.794 84.5269 171.552 83.3287 186.526 86.2376V86.2445ZM143.142 100.775C155.546 103.185 174.399 102.195 185.252 98.5588C196.105 94.9227 194.851 90.0191 182.454 87.6089C170.056 85.1987 151.197 86.1891 140.344 89.8252C129.491 93.4613 130.745 98.3649 143.142 100.775Z" fill="#E5E3E3"/>
<path d="M182.454 87.6089C194.851 90.0192 196.105 94.9227 185.252 98.5589C174.399 102.195 155.546 103.185 143.142 100.775C130.745 98.3649 129.491 93.4614 140.344 89.8252C151.197 86.1891 170.056 85.1987 182.454 87.6089Z" fill="#F3F3F3"/>
<path d="M140.344 90.9195C151.197 87.2834 170.056 86.293 182.454 88.7032C188.625 89.9014 192.032 91.723 192.566 93.6899C193.182 91.3143 189.754 89.0288 182.454 87.6089C170.056 85.1987 151.197 86.1891 140.344 89.8252C134.893 91.6537 132.497 93.8007 133.03 95.7885C133.467 94.1263 135.877 92.4155 140.344 90.9195Z" fill="#E9E9E9"/>
<path d="M130.211 99.3762V107.978C132.275 109.121 135.336 110.132 139.402 110.922C143.419 111.704 147.997 112.182 152.79 112.39V103.629C147.872 103.428 143.177 102.943 139.063 102.147C135.219 101.399 132.261 100.45 130.204 99.3831L130.211 99.3762Z" fill="#E9E9E9"/>
<path d="M177.37 90.3447L174.087 91.4459C175.396 91.806 176.019 92.2493 175.936 92.7549C175.867 93.2605 175.098 93.7938 173.644 94.334L170.264 93.676C171.081 93.3644 171.428 93.0596 171.331 92.7687C171.227 92.4709 170.673 92.2285 169.682 92.0346C168.623 91.8268 167.466 91.7575 166.247 91.8268C165.035 91.8961 163.948 92.09 162.992 92.4086C162.639 92.5263 162.382 92.6441 162.202 92.7618C162.022 92.8795 161.939 93.0042 161.939 93.1289C161.918 93.3851 162.535 93.7107 163.774 94.1054C164.515 94.3409 165.049 94.5349 165.381 94.6803C166.531 95.1859 167.036 95.6915 166.884 96.1971C166.739 96.7096 165.956 97.2013 164.529 97.6723C162.735 98.2749 160.678 98.6835 158.358 98.8982C156.045 99.1129 153.933 99.0921 152.035 98.8289L148.087 100.152L144.936 99.5423L148.731 98.2749C147.069 97.8316 146.266 97.3052 146.335 96.6888C146.397 96.0793 147.339 95.4699 149.154 94.8604L152.409 95.4976C151.252 95.92 150.733 96.301 150.816 96.6473C150.906 96.9936 151.626 97.2983 152.984 97.5615C154.217 97.8039 155.532 97.8801 156.925 97.8039C158.317 97.7277 159.563 97.5061 160.665 97.1321C161.059 97.0005 161.371 96.8758 161.613 96.7512C161.856 96.6196 162.008 96.5018 162.084 96.391C162.327 96.017 161.759 95.6084 160.394 95.1513C160.166 95.0751 160 95.0197 159.896 94.985C158.227 94.4033 157.354 93.8561 157.278 93.3505C157.195 92.838 157.901 92.3324 159.404 91.8268C161.046 91.2797 162.888 90.9195 164.945 90.7394C167.002 90.5663 169.01 90.594 170.97 90.8364L174.226 89.749L177.377 90.3585L177.37 90.3447Z" fill="#E9E9E9"/>
<path d="M177.37 89.112L174.087 90.2132C175.396 90.5803 176.019 91.0166 175.936 91.5222C175.867 92.0348 175.098 92.5611 173.644 93.1014L170.264 92.4434C171.081 92.1317 171.428 91.827 171.331 91.5361C171.227 91.2383 170.673 90.9959 169.682 90.8019C168.623 90.5942 167.466 90.5249 166.247 90.5942C165.035 90.6634 163.948 90.8573 162.992 91.1759C162.639 91.2937 162.382 91.4114 162.202 91.5292C162.022 91.6469 161.939 91.7716 161.939 91.8962C161.918 92.1525 162.535 92.478 163.774 92.8728C164.515 93.1083 165.049 93.3022 165.381 93.4477C166.531 93.9532 167.036 94.4588 166.884 94.9644C166.739 95.477 165.956 95.9618 164.529 96.4397C162.735 97.0422 160.678 97.4508 158.358 97.6656C156.045 97.8803 153.933 97.8526 152.035 97.5963L148.087 98.9191L144.936 98.3027L148.731 97.0284C147.069 96.5851 146.266 96.0587 146.335 95.4493C146.397 94.8398 147.339 94.2303 149.154 93.6139L152.409 94.2441C151.252 94.6666 150.733 95.0545 150.816 95.4008C150.906 95.7471 151.626 96.0518 152.984 96.315C154.217 96.5574 155.532 96.6336 156.925 96.5574C158.317 96.4812 159.563 96.2596 160.665 95.8925C161.059 95.7609 161.371 95.6362 161.613 95.5047C161.856 95.3731 162.008 95.2553 162.084 95.1445C162.327 94.7774 161.759 94.355 160.394 93.9048C160.166 93.8286 160 93.7732 159.896 93.7385C158.227 93.1568 157.354 92.6096 157.278 92.104C157.195 91.5915 157.901 91.0859 159.404 90.5803C161.046 90.0332 162.888 89.673 164.945 89.4929C167.002 89.3198 169.01 89.3475 170.97 89.583L174.226 88.4956L177.377 89.112H177.37Z" fill="#E5E3E3"/>
<path d="M132.85 93.7664C132.76 91.3908 132.642 88.2187 132.552 85.8362C132.615 87.4707 132.788 91.8895 132.857 93.5863C132.857 93.6486 132.857 93.711 132.857 93.7664H132.85Z" fill="#E5E3E3"/>
<path d="M198.383 82.4978C198.494 85.4206 198.605 88.3502 198.716 91.2799C198.799 93.517 195.869 95.8787 189.795 97.908C176.691 102.299 153.933 103.497 138.959 100.588C130.925 99.0231 126.762 96.5921 126.658 94.0018L126.326 85.2197C126.423 87.8169 130.585 90.241 138.626 91.8063C153.593 94.7152 176.359 93.517 189.456 89.1259C195.523 87.0966 198.46 84.7349 198.377 82.4978H198.383Z" fill="#F3F3F3"/>
<path d="M186.09 75.9111C201.064 78.82 202.574 84.7417 189.47 89.1327C176.366 93.5237 153.607 94.7219 138.64 91.813C123.666 88.9041 122.149 82.9825 135.253 78.5983C148.357 74.2073 171.116 73.0091 186.09 75.918V75.9111ZM142.706 90.4417C155.103 92.8519 173.956 91.8546 184.815 88.2185C195.675 84.5824 194.415 79.6788 182.01 77.2686C169.606 74.8583 150.754 75.8557 139.901 79.4918C129.048 83.1279 130.301 88.0315 142.699 90.4417" fill="#E5E3E3"/>
<path d="M182.01 77.2756C194.415 79.6859 195.668 84.5894 184.816 88.2256C173.963 91.8617 155.103 92.859 142.706 90.4488C130.308 88.0385 129.055 83.135 139.908 79.4989C150.761 75.8627 169.613 74.8723 182.017 77.2756H182.01Z" fill="#F3F3F3"/>
<path d="M139.908 80.586C150.761 76.9498 169.613 75.9525 182.017 78.3627C188.188 79.5609 191.596 81.3824 192.129 83.3494C192.753 80.9669 189.31 78.6882 182.017 77.2684C169.613 74.8582 150.761 75.8555 139.908 79.4917C134.45 81.3201 132.054 83.4671 132.601 85.4549C133.03 83.7927 135.44 82.082 139.908 80.586Z" fill="#E9E9E9"/>
<path d="M129.775 89.043V97.645C131.832 98.7878 134.9 99.799 138.959 100.589C142.976 101.371 147.554 101.849 152.347 102.057V93.2886C147.429 93.0877 142.733 92.6029 138.626 91.8064C134.776 91.0584 131.818 90.1096 129.768 89.043H129.775Z" fill="#E9E9E9"/>
<path d="M176.927 80.0113L173.637 81.1126C174.946 81.4727 175.569 81.916 175.486 82.4216C175.41 82.9341 174.641 83.4605 173.187 84.0007L169.807 83.3427C170.624 83.0311 170.971 82.7332 170.874 82.4354C170.77 82.1376 170.223 81.8952 169.218 81.7013C168.152 81.4935 167.002 81.4242 165.79 81.4935C164.571 81.5628 163.491 81.7567 162.535 82.0753C162.189 82.193 161.925 82.3108 161.745 82.4285C161.572 82.5462 161.482 82.6709 161.482 82.7956C161.468 83.0518 162.078 83.3774 163.324 83.7721C164.065 84.0076 164.599 84.2015 164.931 84.347C166.088 84.8526 166.587 85.3512 166.441 85.8638C166.289 86.3763 165.506 86.868 164.086 87.339C162.286 87.9415 160.229 88.3502 157.908 88.5649C155.602 88.7796 153.49 88.7519 151.585 88.4956L147.644 89.8185L144.486 89.209L148.281 87.9415C146.619 87.4983 145.816 86.9719 145.885 86.3624C145.954 85.7529 146.889 85.1435 148.704 84.5271L151.959 85.1573C150.809 85.5798 150.283 85.9676 150.373 86.307C150.463 86.6533 151.183 86.9581 152.534 87.2212C153.767 87.4637 155.076 87.5398 156.475 87.4637C157.86 87.3875 159.106 87.1658 160.215 86.7918C160.603 86.6602 160.921 86.5356 161.164 86.404C161.406 86.2793 161.558 86.1547 161.641 86.0438C161.877 85.6698 161.316 85.2543 159.951 84.8041C159.723 84.7279 159.557 84.6725 159.453 84.6379C157.784 84.0561 156.918 83.5089 156.835 83.0033C156.752 82.4908 157.458 81.9852 158.961 81.4796C160.596 80.9325 162.445 80.5723 164.502 80.3923C166.566 80.2191 168.574 80.2468 170.527 80.4892L173.783 79.4019L176.941 80.0113H176.927Z" fill="#E9E9E9"/>
<path d="M176.927 78.7786L173.637 79.8798C174.946 80.2469 175.569 80.6832 175.486 81.1888C175.41 81.7013 174.641 82.2277 173.187 82.7679L169.807 82.11C170.624 81.7983 170.971 81.4936 170.874 81.2027C170.77 80.9048 170.223 80.6624 169.218 80.4685C168.152 80.2607 167.002 80.1915 165.79 80.2607C164.571 80.33 163.491 80.5239 162.535 80.8425C162.189 80.9603 161.925 81.078 161.745 81.1957C161.572 81.3135 161.482 81.4381 161.482 81.5628C161.468 81.8191 162.078 82.1446 163.324 82.5394C164.065 82.7748 164.599 82.9688 164.931 83.1142C166.088 83.6198 166.587 84.1254 166.441 84.631C166.289 85.1435 165.506 85.6353 164.086 86.1062C162.286 86.7088 160.229 87.1174 157.908 87.3321C155.602 87.5468 153.49 87.5261 151.585 87.2629L147.644 88.5857L144.486 87.9762L148.281 86.7088C146.619 86.2655 145.816 85.7392 145.885 85.1297C145.954 84.5202 146.889 83.9107 148.704 83.2943L151.959 83.9315C150.809 84.354 150.283 84.7349 150.373 85.0812C150.463 85.4275 151.183 85.7322 152.534 85.9954C153.767 86.2378 155.076 86.314 156.475 86.2378C157.86 86.1616 159.106 85.94 160.215 85.5729C160.603 85.4413 160.921 85.3097 161.164 85.1851C161.406 85.0604 161.558 84.9357 161.641 84.8249C161.877 84.4509 161.316 84.0423 159.951 83.5852C159.723 83.509 159.557 83.4536 159.453 83.419C157.784 82.8372 156.918 82.29 156.835 81.7844C156.752 81.2719 157.458 80.7663 158.961 80.2607C160.596 79.7136 162.445 79.3534 164.502 79.1734C166.566 78.9933 168.574 79.0279 170.527 79.2634L173.783 78.176L176.941 78.7855L176.927 78.7786Z" fill="#E5E3E3"/>
<path d="M128.099 82.2071C128.009 79.8315 127.891 76.6594 127.801 74.2769C127.857 75.9114 128.03 80.3301 128.099 82.027C128.099 82.0893 128.099 82.1517 128.099 82.2071Z" fill="#E5E3E3"/>
<path d="M193.639 70.9383C193.743 73.868 193.854 76.7907 193.965 79.7135C194.048 81.9506 191.118 84.3123 185.051 86.3416C171.947 90.7327 149.189 91.9309 134.215 89.022C126.174 87.4567 122.018 85.0257 121.921 82.4354L121.589 73.6533C121.686 76.2505 125.848 78.6815 133.882 80.2399C148.856 83.1488 171.615 81.9506 184.719 77.5595C190.786 75.5302 193.715 73.1685 193.639 70.9314V70.9383Z" fill="#F3F3F3"/>
<path d="M181.332 64.3518C196.306 67.2607 197.816 73.1824 184.712 77.5665C171.608 81.9576 148.849 83.1558 133.875 80.2469C118.901 77.338 117.392 71.4163 130.495 67.0322C143.599 62.6411 166.365 61.4429 181.332 64.3518ZM137.955 78.8825C150.352 81.2927 169.204 80.3023 180.057 76.6662C190.917 73.03 189.657 68.1265 177.259 65.7162C164.855 63.306 146.01 64.3034 135.15 67.9395C124.297 71.5756 125.55 76.4792 137.955 78.8894" fill="#E5E3E3"/>
<path d="M177.259 65.7091C189.657 68.1193 190.917 73.0229 180.058 76.659C169.205 80.2951 150.345 81.2855 137.955 78.8753C125.55 76.4651 124.297 71.5615 135.15 67.9254C146.01 64.2893 164.862 63.2988 177.259 65.7021V65.7091Z" fill="#F3F3F3"/>
<path d="M135.15 69.0266C146.009 65.3905 164.862 64.4001 177.259 66.8034C183.43 68.0016 186.838 69.8231 187.371 71.7901C187.988 69.4145 184.559 67.1289 177.259 65.7091C164.855 63.2989 146.009 64.2962 135.15 67.9323C129.699 69.7608 127.303 71.9078 127.843 73.8956C128.272 72.2333 130.689 70.5226 135.15 69.0266Z" fill="#E9E9E9"/>
<path d="M125.024 77.4834V86.0854C127.081 87.2282 130.156 88.2394 134.215 89.0289C138.232 89.8046 142.81 90.2895 147.609 90.4972V81.729C142.692 81.5351 137.996 81.0433 133.882 80.2468C130.038 79.4988 127.081 78.55 125.024 77.4834Z" fill="#E9E9E9"/>
<path d="M172.183 68.4519L168.893 69.5532C170.202 69.9133 170.825 70.3566 170.742 70.8622C170.673 71.3747 169.904 71.9011 168.45 72.4482L165.063 71.7903C165.88 71.4786 166.233 71.1808 166.129 70.883C166.026 70.5851 165.472 70.3427 164.481 70.1488C163.415 69.941 162.265 69.8718 161.046 69.941C159.834 70.0103 158.746 70.2042 157.791 70.5228C157.437 70.6405 157.181 70.7583 156.994 70.876C156.821 70.9938 156.731 71.1184 156.731 71.2431C156.717 71.4994 157.327 71.8249 158.573 72.2197C159.314 72.4621 159.848 72.6491 160.173 72.7945C161.323 73.3001 161.835 73.8057 161.683 74.3113C161.531 74.8238 160.748 75.3156 159.328 75.7865C157.534 76.3891 155.477 76.7977 153.157 77.0124C150.844 77.2271 148.732 77.1994 146.834 76.9432L142.886 78.266L139.728 77.6496L143.523 76.3752C141.861 75.932 141.058 75.4056 141.127 74.7961C141.189 74.1866 142.131 73.5771 143.939 72.9607L147.194 73.591C146.044 74.0135 145.511 74.4013 145.601 74.7476C145.691 75.0939 146.411 75.3987 147.762 75.6619C149.002 75.9043 150.304 75.9805 151.703 75.9043C153.088 75.8281 154.335 75.6065 155.436 75.2394C155.831 75.1078 156.142 74.9831 156.385 74.8515C156.627 74.7199 156.779 74.6022 156.856 74.4914C157.098 74.1174 156.537 73.7018 155.173 73.2447C154.944 73.1685 154.785 73.1131 154.674 73.0716C153.005 72.4898 152.132 71.9495 152.056 71.437C151.973 70.9245 152.686 70.4189 154.182 69.9133C155.817 69.3662 157.666 69.006 159.723 68.826C161.78 68.6459 163.795 68.6805 165.749 68.916L169.004 67.8286L172.162 68.4381L172.183 68.4519Z" fill="#E9E9E9"/>
<path d="M172.183 67.2193L168.893 68.3205C170.202 68.6806 170.825 69.1239 170.742 69.6295C170.673 70.142 169.904 70.6684 168.45 71.2155L165.063 70.5576C165.88 70.2459 166.233 69.9481 166.129 69.6503C166.026 69.3525 165.472 69.11 164.481 68.9161C163.415 68.7083 162.265 68.6391 161.046 68.7083C159.834 68.7776 158.746 68.9715 157.791 69.2901C157.437 69.4079 157.181 69.5256 156.994 69.6433C156.821 69.768 156.731 69.8857 156.731 70.0104C156.717 70.2667 157.327 70.5922 158.573 70.987C159.314 71.2225 159.848 71.4164 160.173 71.5618C161.323 72.0674 161.835 72.573 161.683 73.0786C161.531 73.5911 160.748 74.0829 159.328 74.5608C157.534 75.1633 155.477 75.5719 153.157 75.7866C150.844 75.9944 148.732 75.9736 146.834 75.7174L142.886 77.0402L139.728 76.4308L143.523 75.1564C141.861 74.7131 141.058 74.1868 141.127 73.5773C141.189 72.9678 142.131 72.3583 143.939 71.7419L147.194 72.3722C146.044 72.7946 145.511 73.1825 145.601 73.5288C145.691 73.8751 146.411 74.1798 147.762 74.4361C149.002 74.6785 150.304 74.7616 151.703 74.6785C153.088 74.6023 154.335 74.3807 155.436 74.0067C155.831 73.8751 156.142 73.7435 156.385 73.6188C156.627 73.4872 156.779 73.3695 156.856 73.2587C157.098 72.8847 156.537 72.4691 155.173 72.012C154.944 71.9358 154.785 71.8804 154.674 71.8458C153.005 71.264 152.132 70.7169 152.056 70.2113C151.973 69.6987 152.686 69.1932 154.182 68.6945C155.817 68.1473 157.666 67.7872 159.723 67.6071C161.78 67.434 163.795 67.4617 165.749 67.7041L169.004 66.6167L172.162 67.2331L172.183 67.2193Z" fill="#E5E3E3"/>
<path d="M133.854 69.844C133.771 67.4684 133.647 64.2894 133.557 61.9138C133.619 63.5483 133.785 67.9671 133.861 69.6639C133.861 69.7263 133.861 69.7886 133.861 69.844H133.854Z" fill="#E5E3E3"/>
<path d="M199.388 58.5755C199.498 61.5052 199.602 64.428 199.713 67.3507C199.803 69.5878 196.867 71.9495 190.8 73.9788C177.696 78.3699 154.937 79.5681 139.956 76.6522C131.922 75.087 127.76 72.6629 127.656 70.0657L127.323 61.2836C127.42 63.8808 131.583 66.3118 139.617 67.8771C154.591 70.786 177.349 69.5878 190.453 65.1967C196.52 63.1674 199.457 60.8057 199.374 58.5686L199.388 58.5755Z" fill="#F3F3F3"/>
<path d="M187.087 51.9888C202.061 54.8977 203.578 60.8194 190.467 65.2104C177.363 69.6015 154.604 70.7997 139.631 67.8908C124.657 64.9819 123.154 59.0602 136.251 54.6691C149.361 50.2781 172.113 49.0799 187.087 51.9888ZM143.703 66.5194C156.107 68.9297 174.96 67.9323 185.813 64.2962C196.666 60.6601 195.412 55.7565 183.008 53.3463C170.61 50.9361 151.765 51.9334 140.898 55.5626C130.052 59.1987 131.299 64.1023 143.696 66.5125" fill="#E5E3E3"/>
<path d="M183.015 53.353C195.419 55.7632 196.673 60.6668 185.82 64.3029C174.967 67.939 156.107 68.9364 143.71 66.5261C131.313 64.1159 130.066 59.2123 140.912 55.5762C151.772 51.9401 170.624 50.9497 183.022 53.3599L183.015 53.353Z" fill="#F3F3F3"/>
<path d="M140.905 56.6639C151.765 53.0277 170.617 52.0373 183.015 54.4475C189.186 55.6457 192.6 57.4603 193.127 59.4342C193.75 57.0586 190.322 54.7731 183.015 53.3533C170.617 50.943 151.772 51.9404 140.905 55.5696C135.454 57.398 133.058 59.545 133.598 61.5328C134.028 59.8706 136.445 58.1599 140.905 56.6639Z" fill="#E9E9E9"/>
<path d="M130.786 65.1202V73.7222C132.843 74.865 135.911 75.8762 139.97 76.6588C143.987 77.4415 148.565 77.9263 153.358 78.1271V69.3589C148.44 69.158 143.745 68.6732 139.631 67.8767C135.787 67.1287 132.829 66.1799 130.779 65.1133L130.786 65.1202Z" fill="#E9E9E9"/>
<path d="M177.931 56.089L174.648 57.1902C175.957 57.5504 176.574 57.9867 176.497 58.4992C176.421 59.0117 175.659 59.5381 174.205 60.0783L170.818 59.4204C171.628 59.1087 171.989 58.8109 171.885 58.5131C171.781 58.2153 171.227 57.9729 170.236 57.7789C169.17 57.5712 168.02 57.5019 166.801 57.5712C165.589 57.6404 164.502 57.8343 163.546 58.1529C163.193 58.2707 162.929 58.3884 162.749 58.5062C162.576 58.6239 162.486 58.7486 162.486 58.8732C162.472 59.1226 163.082 59.4481 164.322 59.8498C165.07 60.0853 165.603 60.2792 165.928 60.4246C167.078 60.9302 167.591 61.4358 167.431 61.9414C167.279 62.4539 166.496 62.9457 165.076 63.4166C163.276 64.0192 161.219 64.4278 158.899 64.6425C156.585 64.8572 154.48 64.8365 152.575 64.5733L148.627 65.8961L145.476 65.2867L149.271 64.0123C147.609 63.569 146.806 63.0426 146.875 62.4332C146.944 61.8237 147.879 61.2142 149.694 60.5978L152.956 61.228C151.799 61.6505 151.273 62.0384 151.363 62.3778C151.453 62.7241 152.173 63.0288 153.531 63.292C154.764 63.5344 156.073 63.6106 157.465 63.5344C158.857 63.4582 160.104 63.2366 161.205 62.8626C161.593 62.731 161.911 62.6063 162.154 62.4747C162.396 62.3501 162.555 62.2254 162.625 62.1146C162.86 61.7406 162.306 61.325 160.935 60.8679C160.713 60.7917 160.547 60.7363 160.436 60.7017C158.774 60.1199 157.894 59.5727 157.818 59.0672C157.735 58.5546 158.441 58.049 159.944 57.5434C161.579 56.9963 163.428 56.6361 165.485 56.4561C167.542 56.276 169.558 56.3106 171.511 56.5461L174.759 55.4587L177.917 56.0682L177.931 56.089Z" fill="#E9E9E9"/>
<path d="M177.931 54.8561L174.648 55.9573C175.957 56.3175 176.574 56.7607 176.497 57.2732C176.421 57.7858 175.659 58.3121 174.205 58.8524L170.818 58.1944C171.628 57.8827 171.989 57.5849 171.885 57.2871C171.781 56.9893 171.227 56.7469 170.236 56.5529C169.17 56.3452 168.02 56.2759 166.801 56.3452C165.589 56.4144 164.502 56.6084 163.546 56.9269C163.193 57.0447 162.929 57.1624 162.749 57.2802C162.576 57.3979 162.486 57.5157 162.486 57.6403C162.472 57.8966 163.082 58.2221 164.322 58.6169C165.07 58.8524 165.603 59.0463 165.928 59.1917C167.078 59.6973 167.591 60.2029 167.431 60.7085C167.279 61.221 166.496 61.7058 165.076 62.1837C163.276 62.7863 161.219 63.1949 158.899 63.4096C156.585 63.6243 154.48 63.5966 152.575 63.3404L148.627 64.6632L145.476 64.0468L149.271 62.7794C147.609 62.3361 146.806 61.8097 146.875 61.2003C146.944 60.5908 147.879 59.9813 149.694 59.3649L152.956 59.9951C151.799 60.4176 151.273 60.8055 151.363 61.1448C151.453 61.4911 152.173 61.7959 153.531 62.0591C154.764 62.3015 156.073 62.3777 157.465 62.3015C158.857 62.2253 160.104 62.0037 161.205 61.6297C161.593 61.4981 161.911 61.3734 162.154 61.2418C162.396 61.1171 162.555 60.9925 162.625 60.8817C162.86 60.5077 162.306 60.0921 160.935 59.635C160.713 59.5588 160.547 59.5034 160.436 59.4688C158.774 58.887 157.894 58.3468 157.818 57.8342C157.735 57.3217 158.441 56.8161 159.944 56.3105C161.579 55.7634 163.428 55.4032 165.485 55.2232C167.542 55.0431 169.558 55.0777 171.511 55.3132L174.759 54.2258L177.917 54.8353L177.931 54.8561Z" fill="#E5E3E3"/>
<path d="M102.639 134.484C102.549 132.108 102.431 128.929 102.334 126.554C102.397 128.188 102.57 132.607 102.639 134.304C102.639 134.366 102.639 134.422 102.639 134.484Z" fill="#E5E3E3"/>
<path d="M168.172 123.215C168.283 126.145 168.394 129.068 168.505 131.997C168.588 134.235 165.651 136.596 159.591 138.626C146.487 143.017 123.722 144.215 108.755 141.306C100.721 139.741 96.5512 137.31 96.4543 134.719L96.1218 125.937C96.2257 128.534 100.381 130.965 108.422 132.524C123.396 135.433 146.148 134.235 159.259 129.843C165.326 127.814 168.262 125.452 168.179 123.215H168.172Z" fill="#F3F3F3"/>
<path d="M155.872 116.629C170.846 119.538 172.363 125.459 159.252 129.843C146.148 134.234 123.389 135.433 108.415 132.524C93.4415 129.615 91.9317 123.693 105.029 119.309C118.133 114.918 140.898 113.72 155.865 116.629H155.872ZM112.488 131.159C124.885 133.57 143.745 132.572 154.598 128.943C165.451 125.307 164.197 120.403 151.8 117.993C139.402 115.583 120.55 116.58 109.69 120.216C98.8299 123.852 100.09 128.756 112.488 131.166" fill="#E5E3E3"/>
<path d="M151.8 117.993C164.197 120.404 165.451 125.307 154.598 128.943C143.745 132.579 124.885 133.577 112.488 131.16C100.09 128.749 98.8299 123.846 109.69 120.21C120.543 116.574 139.395 115.576 151.8 117.986V117.993Z" fill="#F3F3F3"/>
<path d="M109.69 121.304C120.543 117.668 139.395 116.677 151.8 119.088C157.971 120.286 161.378 122.1 161.912 124.074C162.528 121.699 159.1 119.413 151.8 117.993C139.402 115.583 120.55 116.574 109.69 120.217C104.239 122.045 101.843 124.192 102.383 126.18C102.812 124.518 105.223 122.807 109.69 121.311V121.304Z" fill="#E9E9E9"/>
<path d="M99.564 129.76V138.363C101.621 139.505 104.689 140.516 108.748 141.306C112.758 142.082 117.336 142.567 122.143 142.774V134.006C117.225 133.812 112.529 133.32 108.422 132.524C104.571 131.776 101.614 130.827 99.564 129.76Z" fill="#E9E9E9"/>
<path d="M146.716 120.729L143.433 121.83C144.742 122.197 145.358 122.634 145.282 123.139C145.213 123.652 144.444 124.178 142.983 124.725L139.596 124.067C140.413 123.756 140.767 123.458 140.663 123.16C140.559 122.862 140.012 122.62 139.014 122.426C137.948 122.218 136.798 122.149 135.586 122.218C134.367 122.287 133.28 122.481 132.331 122.8C131.984 122.918 131.721 123.035 131.541 123.153C131.368 123.271 131.278 123.396 131.278 123.52C131.271 123.776 131.874 124.102 133.12 124.497C133.861 124.732 134.395 124.926 134.727 125.072C135.884 125.577 136.382 126.083 136.237 126.588C136.085 127.101 135.302 127.593 133.882 128.064C132.088 128.666 130.031 129.075 127.711 129.289C125.398 129.504 123.285 129.476 121.388 129.22L117.44 130.543L114.282 129.934L118.077 128.666C116.415 128.223 115.612 127.697 115.681 127.08C115.75 126.471 116.685 125.861 118.493 125.245L121.748 125.875C120.598 126.297 120.065 126.685 120.162 127.025C120.252 127.371 120.972 127.676 122.323 127.939C123.563 128.181 124.871 128.258 126.264 128.181C127.656 128.105 128.895 127.884 129.997 127.516C130.391 127.385 130.703 127.26 130.946 127.129C131.188 127.004 131.347 126.879 131.423 126.768C131.659 126.394 131.098 125.979 129.734 125.529C129.505 125.453 129.339 125.397 129.235 125.362C127.566 124.781 126.7 124.24 126.61 123.728C126.534 123.215 127.24 122.71 128.736 122.204C130.378 121.657 132.227 121.297 134.277 121.117C136.341 120.944 138.349 120.971 140.309 121.214L143.558 120.126L146.716 120.736V120.729Z" fill="#E9E9E9"/>
<path d="M146.716 119.496L143.433 120.597C144.742 120.958 145.358 121.401 145.282 121.906C145.213 122.419 144.444 122.945 142.983 123.486L139.596 122.828C140.413 122.516 140.767 122.211 140.663 121.92C140.559 121.622 140.012 121.38 139.014 121.186C137.948 120.978 136.798 120.909 135.586 120.978C134.367 121.048 133.28 121.242 132.331 121.56C131.984 121.678 131.721 121.796 131.541 121.913C131.368 122.031 131.278 122.156 131.278 122.28C131.271 122.537 131.874 122.862 133.12 123.257C133.861 123.493 134.395 123.686 134.727 123.832C135.884 124.337 136.382 124.843 136.237 125.349C136.085 125.861 135.302 126.353 133.882 126.824C132.088 127.426 130.031 127.835 127.711 128.05C125.398 128.264 123.285 128.237 121.388 127.981L117.44 129.303L114.282 128.694L118.077 127.42C116.415 126.976 115.612 126.45 115.681 125.84C115.75 125.231 116.685 124.621 118.493 124.005L121.748 124.635C120.598 125.058 120.065 125.446 120.162 125.785C120.252 126.131 120.972 126.436 122.323 126.699C123.563 126.942 124.871 127.018 126.264 126.942C127.656 126.865 128.895 126.637 129.997 126.27C130.391 126.138 130.703 126.014 130.946 125.882C131.188 125.757 131.347 125.64 131.423 125.522C131.659 125.148 131.098 124.732 129.734 124.275C129.505 124.199 129.339 124.144 129.235 124.109C127.566 123.527 126.7 122.987 126.61 122.474C126.534 121.962 127.24 121.456 128.736 120.951C130.378 120.404 132.227 120.043 134.277 119.863C136.341 119.683 138.349 119.718 140.309 119.953L143.558 118.866L146.716 119.482V119.496Z" fill="#E5E3E3"/>
<path d="M106.525 124.954C106.435 122.578 106.317 119.406 106.227 117.023C106.289 118.658 106.462 123.077 106.532 124.774C106.532 124.836 106.532 124.891 106.532 124.954H106.525Z" fill="#E5E3E3"/>
<path d="M172.065 113.685C172.169 116.615 172.286 119.538 172.39 122.467C172.48 124.704 169.544 127.066 163.477 129.096C150.373 133.487 127.614 134.685 112.64 131.776C104.599 130.211 100.444 127.78 100.347 125.189L100.007 116.407C100.104 119.004 104.267 121.429 112.308 122.994C127.282 125.903 150.047 124.704 163.144 120.32C169.211 118.284 172.141 115.929 172.065 113.685Z" fill="#F3F3F3"/>
<path d="M159.758 107.099C174.731 110.008 176.248 115.929 163.144 120.32C150.04 124.711 127.275 125.91 112.308 122.994C97.334 120.085 95.8241 114.163 108.928 109.779C122.032 105.388 144.791 104.19 159.764 107.099H159.758ZM116.38 121.629C128.778 124.04 147.63 123.049 158.49 119.413C169.343 115.777 168.089 110.873 155.685 108.463C143.288 106.053 124.435 107.043 113.582 110.686C102.729 114.322 103.983 119.226 116.38 121.636" fill="#E5E3E3"/>
<path d="M155.685 108.463C168.089 110.873 169.343 115.777 158.49 119.413C147.63 123.049 128.778 124.039 116.38 121.629C103.976 119.219 102.722 114.315 113.582 110.679C124.435 107.043 143.288 106.053 155.685 108.456V108.463Z" fill="#F3F3F3"/>
<path d="M113.582 111.774C124.435 108.137 143.288 107.147 155.685 109.55C161.856 110.748 165.264 112.57 165.797 114.537C166.413 112.154 162.992 109.876 155.685 108.456C143.288 106.046 124.435 107.036 113.582 110.679C108.125 112.508 105.735 114.655 106.268 116.642C106.705 114.98 109.115 113.27 113.582 111.774Z" fill="#E9E9E9"/>
<path d="M103.449 120.23V128.832C105.506 129.975 108.575 130.986 112.633 131.776C116.65 132.558 121.228 133.036 126.028 133.244V124.476C121.111 124.275 116.415 123.79 112.308 122.994C108.457 122.246 105.506 121.297 103.449 120.23Z" fill="#E9E9E9"/>
<path d="M150.601 111.199L147.319 112.3C148.628 112.66 149.251 113.097 149.168 113.609C149.092 114.115 148.33 114.648 146.875 115.188L143.495 114.53C144.306 114.219 144.659 113.914 144.555 113.623C144.458 113.325 143.897 113.083 142.907 112.889C141.84 112.681 140.69 112.612 139.471 112.681C138.259 112.75 137.172 112.944 136.216 113.263C135.863 113.381 135.607 113.498 135.427 113.616C135.254 113.734 135.163 113.858 135.163 113.983C135.15 114.239 135.759 114.565 136.999 114.96C137.74 115.195 138.273 115.389 138.606 115.535C139.755 116.033 140.268 116.539 140.122 117.051C139.963 117.564 139.181 118.056 137.761 118.533C135.967 119.136 133.91 119.545 131.59 119.759C129.276 119.974 127.171 119.953 125.266 119.69L121.319 121.013L118.167 120.404L121.956 119.129C120.294 118.686 119.49 118.16 119.559 117.543C119.629 116.934 120.571 116.324 122.371 115.708L125.633 116.338C124.484 116.76 123.95 117.148 124.047 117.488C124.144 117.834 124.858 118.139 126.208 118.402C127.448 118.637 128.75 118.727 130.149 118.644C131.541 118.568 132.788 118.347 133.889 117.972C134.284 117.841 134.596 117.716 134.838 117.585C135.08 117.46 135.233 117.335 135.309 117.224C135.544 116.857 134.983 116.435 133.612 115.985C133.397 115.909 133.224 115.853 133.113 115.819C131.444 115.237 130.572 114.69 130.495 114.184C130.412 113.671 131.119 113.166 132.622 112.66C134.256 112.113 136.105 111.753 138.162 111.573C140.219 111.4 142.235 111.427 144.188 111.67L147.443 110.583L150.594 111.192L150.601 111.199Z" fill="#E9E9E9"/>
<path d="M150.601 109.966L147.319 111.067C148.628 111.427 149.251 111.864 149.168 112.376C149.092 112.889 148.33 113.415 146.875 113.962L143.495 113.304C144.306 112.993 144.659 112.695 144.555 112.397C144.458 112.099 143.897 111.857 142.907 111.663C141.84 111.455 140.69 111.386 139.471 111.455C138.259 111.524 137.172 111.718 136.216 112.037C135.863 112.155 135.607 112.272 135.427 112.39C135.254 112.508 135.163 112.633 135.163 112.757C135.15 113.013 135.759 113.339 136.999 113.734C137.74 113.969 138.273 114.163 138.606 114.309C139.755 114.814 140.268 115.32 140.122 115.825C139.963 116.338 139.181 116.83 137.761 117.301C135.967 117.903 133.91 118.312 131.59 118.527C129.276 118.734 127.171 118.714 125.266 118.457L121.319 119.78L118.167 119.171L121.956 117.896C120.294 117.453 119.49 116.927 119.559 116.317C119.629 115.708 120.571 115.098 122.371 114.482L125.633 115.112C124.484 115.535 123.95 115.922 124.047 116.269C124.144 116.615 124.858 116.92 126.208 117.183C127.448 117.425 128.75 117.502 130.149 117.425C131.541 117.349 132.788 117.128 133.889 116.754C134.284 116.622 134.596 116.497 134.838 116.366C135.08 116.241 135.233 116.123 135.309 116.012C135.544 115.638 134.983 115.223 133.612 114.766C133.397 114.69 133.224 114.634 133.113 114.6C131.444 114.018 130.572 113.471 130.495 112.965C130.412 112.452 131.119 111.947 132.622 111.441C134.256 110.894 136.105 110.534 138.162 110.354C140.219 110.181 142.235 110.208 144.188 110.451L147.443 109.364L150.594 109.973L150.601 109.966Z" fill="#E5E3E3"/>
<path d="M103.408 113.526C103.318 111.143 103.193 107.971 103.103 105.596C103.166 107.237 103.339 111.649 103.408 113.346C103.408 113.408 103.408 113.471 103.408 113.526Z" fill="#E5E3E3"/>
<path d="M168.941 102.257C169.052 105.187 169.163 108.11 169.274 111.04C169.357 113.277 166.427 115.638 160.36 117.668C147.256 122.059 124.491 123.257 109.517 120.341C101.483 118.776 97.32 116.352 97.2231 113.754L96.8906 104.972C96.9876 107.57 101.15 110.001 109.191 111.559C124.165 114.468 146.924 113.27 160.028 108.879C166.095 106.849 169.024 104.488 168.941 102.25V102.257Z" fill="#F3F3F3"/>
<path d="M156.641 95.6707C171.615 98.5796 173.131 104.501 160.028 108.892C146.924 113.283 124.158 114.482 109.191 111.573C94.2173 108.664 92.7074 102.742 105.811 98.351C118.915 93.96 141.674 92.7618 156.641 95.6707ZM113.257 110.208C125.661 112.618 144.513 111.621 155.366 107.985C166.219 104.349 164.966 99.4453 152.561 97.0351C140.164 94.6249 121.312 95.6153 110.459 99.2583C99.6057 102.894 100.859 107.798 113.257 110.208Z" fill="#E5E3E3"/>
<path d="M152.568 97.0352C164.973 99.4454 166.219 104.349 155.373 107.985C144.514 111.621 125.661 112.612 113.264 110.208C100.866 107.798 99.6126 102.895 110.466 99.2584C121.319 95.6223 140.178 94.6318 152.568 97.0352Z" fill="#F3F3F3"/>
<path d="M110.466 100.346C121.318 96.7096 140.178 95.7192 152.568 98.1294C158.739 99.3276 162.147 101.149 162.68 103.116C163.297 100.734 159.868 98.4549 152.568 97.0351C140.171 94.6249 121.318 95.6153 110.466 99.2583C105.008 101.087 102.618 103.234 103.152 105.222C103.581 103.559 105.998 101.849 110.466 100.353V100.346Z" fill="#E9E9E9"/>
<path d="M100.333 108.802V117.404C102.39 118.547 105.465 119.558 109.523 120.341C113.541 121.124 118.119 121.601 122.918 121.809V113.041C117.994 112.84 113.298 112.355 109.191 111.559C105.34 110.811 102.39 109.862 100.333 108.795V108.802Z" fill="#E9E9E9"/>
<path d="M147.485 99.7711L144.195 100.872C145.504 101.239 146.127 101.676 146.044 102.181C145.975 102.694 145.206 103.22 143.752 103.76L140.365 103.102C141.175 102.791 141.535 102.493 141.431 102.195C141.328 101.897 140.774 101.655 139.783 101.461C138.717 101.253 137.567 101.184 136.355 101.253C135.136 101.323 134.055 101.516 133.093 101.835C132.746 101.953 132.49 102.071 132.303 102.188C132.13 102.306 132.04 102.431 132.04 102.555C132.026 102.805 132.636 103.137 133.875 103.532C134.623 103.767 135.15 103.961 135.482 104.107C136.632 104.612 137.144 105.118 136.985 105.624C136.84 106.136 136.057 106.628 134.637 107.106C132.836 107.708 130.779 108.117 128.459 108.332C126.146 108.546 124.034 108.525 122.136 108.262L118.188 109.585L115.03 108.976L118.825 107.708C117.163 107.265 116.366 106.739 116.429 106.129C116.498 105.52 117.433 104.91 119.248 104.294L122.503 104.924C121.353 105.346 120.82 105.734 120.917 106.074C121.007 106.42 121.727 106.725 123.078 106.988C124.317 107.23 125.62 107.307 127.019 107.23C128.411 107.154 129.657 106.933 130.759 106.559C131.153 106.427 131.465 106.302 131.707 106.178C131.95 106.046 132.102 105.928 132.178 105.817C132.414 105.443 131.853 105.028 130.488 104.571C130.267 104.495 130.094 104.439 129.997 104.405C128.328 103.823 127.455 103.276 127.372 102.77C127.289 102.258 128.002 101.752 129.505 101.246C131.14 100.699 132.982 100.339 135.046 100.159C137.11 99.9789 139.118 100.014 141.071 100.249L144.327 99.1616L147.478 99.7711H147.485Z" fill="#E9E9E9"/>
<path d="M147.485 98.5382L144.195 99.6394C145.504 99.9996 146.127 100.443 146.044 100.948C145.975 101.461 145.206 101.987 143.752 102.534L140.365 101.877C141.175 101.565 141.535 101.267 141.431 100.969C141.328 100.671 140.774 100.429 139.783 100.235C138.717 100.027 137.567 99.958 136.355 100.027C135.136 100.097 134.055 100.29 133.093 100.609C132.746 100.727 132.49 100.845 132.303 100.962C132.13 101.08 132.04 101.205 132.04 101.329C132.026 101.586 132.636 101.911 133.875 102.306C134.623 102.541 135.15 102.735 135.482 102.881C136.632 103.386 137.144 103.892 136.985 104.398C136.84 104.91 136.057 105.402 134.637 105.873C132.836 106.475 130.779 106.884 128.459 107.099C126.146 107.313 124.034 107.286 122.136 107.029L118.188 108.352L115.03 107.736L118.825 106.461C117.163 106.018 116.366 105.492 116.429 104.882C116.498 104.273 117.433 103.663 119.248 103.047L122.503 103.677C121.353 104.1 120.82 104.481 120.917 104.827C121.007 105.173 121.727 105.478 123.078 105.741C124.317 105.984 125.62 106.06 127.019 105.984C128.411 105.907 129.657 105.686 130.759 105.312C131.153 105.18 131.465 105.056 131.707 104.924C131.95 104.799 132.102 104.675 132.178 104.564C132.414 104.19 131.853 103.774 130.488 103.317C130.267 103.241 130.094 103.186 129.997 103.151C128.328 102.569 127.455 102.022 127.372 101.516C127.289 101.004 128.002 100.498 129.505 99.9927C131.14 99.4455 132.982 99.0784 135.046 98.9053C137.11 98.7252 139.118 98.7598 141.071 98.9953L144.327 97.908L147.478 98.5174L147.485 98.5382Z" fill="#E5E3E3"/>
<path d="M148.628 96.7166L156.482 94.7358C164.204 92.7896 173.021 98.5867 177.391 109.135C182.385 121.186 179.677 134.865 171.338 139.692L163.484 141.673C171.823 136.846 174.531 123.167 169.53 111.116C165.16 100.574 156.343 94.7705 148.621 96.7236L148.628 96.7166Z" fill="#E5E3E3"/>
<path d="M168.117 141.008L160.263 142.989C161.364 142.712 162.445 142.276 163.491 141.673L171.345 139.692C170.306 140.295 169.225 140.731 168.117 141.008Z" fill="#E5E3E3"/>
<path d="M148.628 96.7164L156.482 94.7356C155.38 95.0126 154.3 95.449 153.254 96.0515L145.4 98.0323C146.439 97.4298 147.519 96.9935 148.628 96.7164Z" fill="#F3F3F3"/>
<path d="M168.117 141.008L160.263 142.989C152.541 144.935 143.717 139.138 139.347 128.596C134.353 116.545 137.061 102.867 145.4 98.0392L153.254 96.0583C144.922 100.886 142.207 114.564 147.201 126.616C151.571 137.157 160.388 142.961 168.117 141.015V141.008Z" fill="#F3F3F3"/>
<path d="M169.322 145.801L161.468 147.781C152.146 150.129 141.494 143.134 136.223 130.404C130.191 115.86 133.46 99.3414 143.53 93.5167L151.384 91.5359C141.321 97.3675 138.045 113.879 144.077 128.423C149.355 141.153 160 148.155 169.322 145.801Z" fill="#E9E9E9"/>
<path d="M151.384 91.5358C161.448 85.7042 174.496 92.7756 180.522 107.32C186.554 121.865 183.285 138.383 173.222 144.208C163.151 150.032 150.103 142.968 144.077 128.423C138.045 113.872 141.321 97.3605 151.384 91.5358ZM171.345 139.692C179.684 134.865 182.392 121.186 177.398 109.135C172.404 97.0835 161.593 91.2311 153.261 96.0515C144.929 100.879 142.214 114.558 147.208 126.609C152.201 138.66 163.013 144.512 171.345 139.685" fill="#E5E3E3"/>
<path d="M153.254 96.0517C161.593 91.2243 172.397 97.0837 177.391 109.135C182.385 121.186 179.677 134.865 171.338 139.692C163.006 144.519 152.194 138.66 147.201 126.616C142.207 114.565 144.922 100.886 153.254 96.0586V96.0517Z" fill="#F3F3F3"/>
<path d="M147.422 91.9237C150.04 91.2657 152.658 90.6008 155.283 89.9429C153.947 90.2753 152.638 90.8017 151.384 91.5358L143.53 93.5167C144.791 92.7894 146.1 92.2631 147.422 91.9237Z" fill="#D4CFCF"/>
<path d="M153.254 96.0517C151.841 96.869 150.601 97.9425 149.521 99.2238C150.498 98.1642 151.599 97.2569 152.825 96.5435C161.164 91.7161 171.968 97.5685 176.962 109.62C181.117 119.628 179.94 130.758 174.641 137.012C180.3 130.868 181.65 119.413 177.391 109.135C172.397 97.0837 161.586 91.2313 153.254 96.0517Z" fill="#E9E9E9"/>
<path d="M161.468 147.782L169.322 145.801C164.765 146.95 159.903 145.863 155.491 142.968L148.233 145.33C152.478 147.934 157.112 148.876 161.468 147.782Z" fill="#D4CFCF"/>
<path d="M156.572 101.35L158.082 104.993C159.204 104.633 160.291 104.827 161.371 105.575C162.438 106.316 163.373 107.535 164.162 109.232L161.891 110.548C161.434 109.592 160.88 108.948 160.222 108.615C159.564 108.283 158.899 108.311 158.227 108.699C157.514 109.114 157.07 109.765 156.904 110.659C156.738 111.545 156.876 112.522 157.313 113.581C157.479 113.969 157.659 114.302 157.867 114.579C158.075 114.856 158.31 115.077 158.58 115.25C159.113 115.604 159.979 115.645 161.143 115.382C161.842 115.216 162.383 115.133 162.777 115.112C164.149 115.043 165.361 115.403 166.413 116.192C167.466 116.982 168.318 118.166 168.969 119.738C169.8 121.74 170.14 123.638 170.008 125.445C169.869 127.253 169.281 128.597 168.242 129.483L170.056 133.867L167.937 135.093L166.192 130.882C164.814 131.367 163.491 131.173 162.202 130.294C160.914 129.421 159.848 127.973 158.996 125.958L161.184 124.691C161.794 126.02 162.486 126.886 163.248 127.295C164.01 127.703 164.841 127.641 165.749 127.115C166.58 126.637 167.092 125.889 167.279 124.871C167.473 123.859 167.314 122.737 166.808 121.518C166.628 121.082 166.427 120.708 166.226 120.376C166.012 120.043 165.797 119.78 165.575 119.579C164.841 118.914 163.816 118.72 162.486 118.99C162.265 119.032 162.105 119.067 161.995 119.081C160.332 119.378 158.94 119.212 157.825 118.568C156.717 117.924 155.81 116.774 155.124 115.105C154.369 113.29 154.064 111.587 154.217 110.001C154.369 108.415 154.951 107.147 155.962 106.191L154.466 102.583L156.586 101.357L156.572 101.35Z" fill="#E9E9E9"/>
<path d="M157.943 100.796L159.453 104.439C160.568 104.079 161.662 104.273 162.736 105.014C163.802 105.755 164.737 106.974 165.527 108.671L163.255 109.994C162.798 109.038 162.244 108.394 161.586 108.061C160.928 107.729 160.263 107.756 159.591 108.144C158.871 108.56 158.428 109.218 158.262 110.104C158.095 110.991 158.234 111.967 158.677 113.027C158.836 113.415 159.023 113.747 159.231 114.024C159.439 114.301 159.674 114.523 159.938 114.696C160.478 115.049 161.337 115.091 162.507 114.821C163.207 114.662 163.747 114.572 164.142 114.551C165.513 114.482 166.725 114.842 167.778 115.638C168.831 116.428 169.682 117.605 170.34 119.184C171.172 121.179 171.518 123.084 171.379 124.891C171.241 126.692 170.645 128.043 169.606 128.929L171.421 133.313L169.302 134.539L167.563 130.335C166.185 130.82 164.855 130.626 163.56 129.746C162.272 128.874 161.212 127.426 160.36 125.411L162.549 124.143C163.165 125.473 163.851 126.346 164.606 126.747C165.368 127.156 166.199 127.094 167.113 126.574C167.944 126.096 168.457 125.348 168.644 124.33C168.837 123.319 168.671 122.197 168.166 120.978C167.986 120.549 167.792 120.168 167.577 119.835C167.369 119.503 167.154 119.24 166.933 119.039C166.199 118.374 165.167 118.18 163.844 118.45C163.622 118.492 163.463 118.526 163.352 118.54C161.69 118.845 160.298 118.672 159.183 118.028C158.068 117.384 157.167 116.234 156.482 114.565C155.727 112.75 155.429 111.053 155.574 109.46C155.72 107.874 156.308 106.607 157.32 105.651L155.824 102.043L157.943 100.817V100.796Z" fill="#E5E3E3"/>
<path d="M147.753 152.855C143.341 157.274 136.16 157.274 131.748 152.855L32.8671 53.9742C32.2796 53.3867 32.2796 52.4402 32.8671 51.8527C33.4546 51.2652 34.4011 51.2652 34.9886 51.8527L133.863 150.74C137.107 153.984 142.388 153.984 145.632 150.74C148.876 147.496 148.876 142.215 145.632 138.97C145.044 138.383 145.044 137.436 145.632 136.849C146.213 136.268 147.166 136.268 147.747 136.849C152.16 141.262 152.16 148.442 147.747 152.855H147.753Z" fill="#B92E23"/>
<path d="M29.2899 150.603C32.1555 147.737 36.2288 146.863 39.8712 147.9C39.1401 142.012 41.0135 135.87 45.5306 131.359C51.2292 125.661 59.5063 124.159 66.5953 126.81C66.6606 116.542 70.5967 106.293 78.4364 98.4536C78.6714 98.2252 78.9194 98.0293 79.1544 97.8074C79.5526 97.3766 79.9508 96.9392 80.3751 96.5149C88.2083 88.6883 98.4566 84.7391 108.725 84.6738C106.081 77.5913 107.582 69.3078 113.274 63.6157C117.791 59.0986 123.934 57.2251 129.815 57.9562C128.777 54.3073 129.646 50.2406 132.518 47.3684C135.684 44.2025 140.318 43.4192 144.215 44.9989C144.248 44.9728 144.281 44.9532 144.313 44.9336C111.453 23.1379 66.7193 26.7215 37.7497 55.6846C8.85841 84.5759 5.21599 129.16 26.829 162C25.4059 158.168 26.2023 153.69 29.2899 150.603Z" fill="#EFEDED"/>
<path d="M45.5373 131.359C51.2359 125.661 59.5129 124.159 66.6019 126.81C66.6672 116.542 70.6034 106.293 78.4431 98.4537C78.678 98.2252 78.9261 98.0294 79.1611 97.8075C79.5593 97.3766 79.9575 96.9393 80.3818 96.515C88.2149 88.6884 98.4633 84.7391 108.731 84.6739C106.088 77.5914 107.589 69.3078 113.281 63.6157C117.798 59.0986 123.941 57.2252 129.822 57.9563C129.796 57.8714 129.783 57.7735 129.763 57.6821C98.3588 35.3315 59.8067 33.6278 37.7498 55.6847C15.6538 77.7807 17.3967 116.431 39.8713 147.874C39.1533 142 41.0202 135.864 45.5308 131.359H45.5373Z" fill="#E43D30"/>
<path d="M78.4365 98.4535C78.6715 98.2251 78.9195 98.0292 79.1545 97.8073C79.5527 97.3765 79.9509 96.9391 80.3752 96.5148C88.2084 88.6882 98.4567 84.739 108.725 84.6737C108.699 84.615 108.699 84.5497 108.672 84.4844C78.678 57.8908 48.3311 45.1032 37.7498 55.6845C27.1554 66.2789 39.9692 96.6519 66.6019 126.666C66.7064 116.45 70.636 106.261 78.4365 98.4601V98.4535Z" fill="#EFEDED"/>
<path d="M144.933 136.137C143.954 137.11 143.954 138.696 144.933 139.669C147.786 142.521 147.792 147.169 144.933 150.022C142.074 152.881 137.427 152.881 134.574 150.022L127.629 143.076L124.097 146.608L131.043 153.553C135.84 158.351 143.66 158.351 148.465 153.553C153.269 148.749 153.269 140.935 148.465 136.137C147.492 135.158 145.913 135.158 144.94 136.137H144.933Z" fill="#EFEDED"/>
</g>
<defs>
<clipPath id="clip0_609_16219">
<rect width="211.913" height="157" fill="white"/>
</clipPath>
</defs>
</svg>
