<svg width="30" height="22" viewBox="0 0 30 22" fill="none" xmlns="http://www.w3.org/2000/svg">
<path fill-rule="evenodd" clip-rule="evenodd" d="M29.7067 16.6757C29.7067 16.6757 30.0001 14.3009 30.0001 11.926V9.69963C30.0001 7.32475 29.7067 4.9517 29.7067 4.9517C29.7067 4.9517 29.4206 2.92892 28.5404 2.03765C27.5345 0.983846 26.4183 0.87619 25.7879 0.8154C25.7195 0.808802 25.6568 0.802757 25.6006 0.796113C21.4946 0.499023 15.3346 0.499023 15.3346 0.499023H15.3235C15.3235 0.499023 9.16352 0.499023 5.05745 0.796113C5.00125 0.802757 4.93856 0.808802 4.87015 0.8154C4.23983 0.87619 3.12356 0.983846 2.11773 2.03765C1.23747 2.92892 0.951381 4.9517 0.951381 4.9517C0.951381 4.9517 0.657959 7.32475 0.657959 9.69963V11.926C0.657959 14.3009 0.951381 16.6757 0.951381 16.6757C0.951381 16.6757 1.23747 18.6967 2.11773 19.5879C3.04179 20.5561 4.20768 20.6967 4.95152 20.7864C5.10522 20.8049 5.2409 20.8213 5.35271 20.8423C7.70008 21.0661 15.329 21.1357 15.329 21.1357C15.329 21.1357 21.4946 21.1266 25.6006 20.8295C25.6568 20.8228 25.7195 20.8168 25.7879 20.8102C26.4183 20.7494 27.5345 20.6418 28.5404 19.5879C29.4206 18.6967 29.7067 16.6757 29.7067 16.6757ZM20.2278 10.5158L12.2999 14.6237L12.298 6.37856L20.2278 10.5158Z" fill="#DBDBDB"/>
</svg>
